<mxfile host="app.diagrams.net" modified="2021-05-11T13:42:03.475Z" agent="5.0 (Macintosh; Intel Mac OS X 10_15_7) AppleWebKit/537.36 (KHTML, like Gecko) Chrome/90.0.4430.93 Safari/537.36 Edg/90.0.818.56" etag="Ob9p_Q3Md4usby2R3NUl" version="14.6.11" type="github">
  <diagram id="kgpKYQtTHZ0yAKxKKP6v" name="Page-1">
    <mxGraphModel dx="1441" dy="952" grid="1" gridSize="10" guides="1" tooltips="1" connect="1" arrows="1" fold="1" page="1" pageScale="1" pageWidth="4681" pageHeight="3300" math="0" shadow="0">
      <root>
        <mxCell id="0" />
        <mxCell id="1" parent="0" />
        <mxCell id="3nuBFxr9cyL0pnOWT2aG-1" value="&lt;font style=&quot;font-size: 24px&quot;&gt;Roadmap&lt;/font&gt;" style="shape=table;childLayout=tableLayout;rowLines=0;columnLines=0;startSize=40;html=1;whiteSpace=wrap;collapsible=0;recursiveResize=0;expand=0;fontStyle=1" parent="1" vertex="1">
          <mxGeometry x="920" y="40" width="3720" height="400" as="geometry" />
        </mxCell>
        <mxCell id="3nuBFxr9cyL0pnOWT2aG-15" value="Must do" style="swimlane;horizontal=0;points=[[0,0.5],[1,0.5]];portConstraint=eastwest;startSize=40;html=1;whiteSpace=wrap;collapsible=0;recursiveResize=0;expand=0;" parent="3nuBFxr9cyL0pnOWT2aG-1" vertex="1">
          <mxGeometry y="40" width="3720" height="360" as="geometry" />
        </mxCell>
        <mxCell id="3nuBFxr9cyL0pnOWT2aG-16" value="" style="swimlane;connectable=0;startSize=0;html=1;whiteSpace=wrap;collapsible=0;recursiveResize=0;expand=0;" parent="3nuBFxr9cyL0pnOWT2aG-15" vertex="1">
          <mxGeometry x="40" width="480" height="360" as="geometry" />
        </mxCell>
        <mxCell id="NOBcD5i34oA0I1o-wroY-8" value="&lt;span style=&quot;color: rgb(26 , 26 , 26) ; font-family: &amp;#34;opensans&amp;#34; , &amp;#34;arial&amp;#34; , sans-serif , &amp;#34;noto sans hebrew&amp;#34; , &amp;#34;noto sans&amp;#34; , &amp;#34;noto sans jp&amp;#34; , &amp;#34;noto sans kr&amp;#34; ; font-weight: 400 ; background-color: rgb(242 , 242 , 242)&quot;&gt;&lt;font style=&quot;font-size: 14px&quot;&gt;Garder la disponibilité de la PF au bon niveau&lt;/font&gt;&lt;/span&gt;" style="swimlane;connectable=0;startSize=40;html=1;whiteSpace=wrap;collapsible=0;recursiveResize=0;expand=0;" parent="3nuBFxr9cyL0pnOWT2aG-16" vertex="1">
          <mxGeometry width="480" height="360" as="geometry" />
        </mxCell>
        <mxCell id="NOBcD5i34oA0I1o-wroY-14" value="&lt;span style=&quot;color: rgb(26 , 26 , 26) ; font-family: &amp;#34;opensans&amp;#34; , &amp;#34;arial&amp;#34; , sans-serif , &amp;#34;noto sans hebrew&amp;#34; , &amp;#34;noto sans&amp;#34; , &amp;#34;noto sans jp&amp;#34; , &amp;#34;noto sans kr&amp;#34; ; font-weight: 400 ; background-color: rgb(242 , 242 , 242)&quot;&gt;&lt;font style=&quot;font-size: 10px&quot;&gt;Etablir des SLAs&lt;/font&gt;&lt;/span&gt;" style="swimlane;connectable=0;startSize=40;html=1;whiteSpace=wrap;collapsible=0;recursiveResize=0;expand=0;" parent="NOBcD5i34oA0I1o-wroY-8" vertex="1">
          <mxGeometry y="40" width="160" height="1280" as="geometry" />
        </mxCell>
        <mxCell id="NOBcD5i34oA0I1o-wroY-15" value="&lt;span style=&quot;color: rgb(26 , 26 , 26) ; font-family: &amp;#34;opensans&amp;#34; , &amp;#34;arial&amp;#34; , sans-serif , &amp;#34;noto sans hebrew&amp;#34; , &amp;#34;noto sans&amp;#34; , &amp;#34;noto sans jp&amp;#34; , &amp;#34;noto sans kr&amp;#34; ; font-weight: 400 ; background-color: rgb(242 , 242 , 242)&quot;&gt;&lt;font style=&quot;font-size: 10px&quot;&gt;Proposer un plan de reprise/redondance&lt;/font&gt;&lt;/span&gt;" style="swimlane;connectable=0;startSize=40;html=1;whiteSpace=wrap;collapsible=0;recursiveResize=0;expand=0;" parent="NOBcD5i34oA0I1o-wroY-8" vertex="1">
          <mxGeometry x="160" y="40" width="160" height="1280" as="geometry" />
        </mxCell>
        <mxCell id="NOBcD5i34oA0I1o-wroY-16" value="&lt;span style=&quot;color: rgb(26 , 26 , 26) ; font-family: &amp;#34;opensans&amp;#34; , &amp;#34;arial&amp;#34; , sans-serif , &amp;#34;noto sans hebrew&amp;#34; , &amp;#34;noto sans&amp;#34; , &amp;#34;noto sans jp&amp;#34; , &amp;#34;noto sans kr&amp;#34; ; background-color: rgb(242 , 242 , 242)&quot;&gt;&lt;font style=&quot;font-size: 10px&quot;&gt;Perf des runners&lt;/font&gt;&lt;/span&gt;" style="swimlane;connectable=0;startSize=40;html=1;whiteSpace=wrap;collapsible=0;recursiveResize=0;expand=0;fontStyle=0" parent="NOBcD5i34oA0I1o-wroY-8" vertex="1">
          <mxGeometry x="320" y="40" width="160" height="1280" as="geometry" />
        </mxCell>
        <mxCell id="Qkg7i3cpuD9OE8UDh-O3-1" value="&lt;span style=&quot;color: rgb(26 , 26 , 26) ; font-family: &amp;#34;opensans&amp;#34; , &amp;#34;arial&amp;#34; , sans-serif , &amp;#34;noto sans hebrew&amp;#34; , &amp;#34;noto sans&amp;#34; , &amp;#34;noto sans jp&amp;#34; , &amp;#34;noto sans kr&amp;#34;&quot;&gt;&lt;font style=&quot;font-size: 10px&quot;&gt;Déployer un produit avec la méthode DevtheJo&lt;/font&gt;&lt;/span&gt;" style="rounded=0;whiteSpace=wrap;html=1;fillColor=#ffe6cc;strokeColor=#d79b00;" parent="NOBcD5i34oA0I1o-wroY-16" vertex="1">
          <mxGeometry x="10" y="970" width="140" height="50" as="geometry" />
        </mxCell>
        <mxCell id="3nuBFxr9cyL0pnOWT2aG-18" value="" style="swimlane;connectable=0;startSize=0;html=1;whiteSpace=wrap;collapsible=0;recursiveResize=0;expand=0;" parent="3nuBFxr9cyL0pnOWT2aG-15" vertex="1">
          <mxGeometry x="520" width="640" height="360" as="geometry" />
        </mxCell>
        <mxCell id="NOBcD5i34oA0I1o-wroY-17" value="&lt;span style=&quot;color: rgb(26 , 26 , 26) ; font-family: &amp;#34;opensans&amp;#34; , &amp;#34;arial&amp;#34; , sans-serif , &amp;#34;noto sans hebrew&amp;#34; , &amp;#34;noto sans&amp;#34; , &amp;#34;noto sans jp&amp;#34; , &amp;#34;noto sans kr&amp;#34; ; font-weight: 400 ; background-color: rgb(242 , 242 , 242)&quot;&gt;&lt;font style=&quot;font-size: 14px&quot;&gt;Communication / Marketing&lt;/font&gt;&lt;/span&gt;" style="swimlane;connectable=0;startSize=40;html=1;whiteSpace=wrap;collapsible=0;recursiveResize=0;expand=0;" parent="3nuBFxr9cyL0pnOWT2aG-18" vertex="1">
          <mxGeometry width="640" height="360" as="geometry" />
        </mxCell>
        <mxCell id="NOBcD5i34oA0I1o-wroY-18" value="&lt;span style=&quot;color: rgb(26 , 26 , 26) ; font-family: &amp;#34;opensans&amp;#34; , &amp;#34;arial&amp;#34; , sans-serif , &amp;#34;noto sans hebrew&amp;#34; , &amp;#34;noto sans&amp;#34; , &amp;#34;noto sans jp&amp;#34; , &amp;#34;noto sans kr&amp;#34; ; font-weight: 400 ; background-color: rgb(242 , 242 , 242)&quot;&gt;&lt;font style=&quot;font-size: 10px&quot;&gt;Formation&lt;/font&gt;&lt;/span&gt;" style="swimlane;connectable=0;startSize=40;html=1;whiteSpace=wrap;collapsible=0;recursiveResize=0;expand=0;" parent="NOBcD5i34oA0I1o-wroY-17" vertex="1">
          <mxGeometry y="40" width="160" height="1280" as="geometry" />
        </mxCell>
        <mxCell id="NOBcD5i34oA0I1o-wroY-19" value="&lt;span style=&quot;color: rgb(26 , 26 , 26) ; font-family: &amp;#34;opensans&amp;#34; , &amp;#34;arial&amp;#34; , sans-serif , &amp;#34;noto sans hebrew&amp;#34; , &amp;#34;noto sans&amp;#34; , &amp;#34;noto sans jp&amp;#34; , &amp;#34;noto sans kr&amp;#34; ; font-weight: 400 ; background-color: rgb(242 , 242 , 242)&quot;&gt;&lt;font style=&quot;font-size: 10px&quot;&gt;Documentation&lt;/font&gt;&lt;/span&gt;" style="swimlane;connectable=0;startSize=40;html=1;whiteSpace=wrap;collapsible=0;recursiveResize=0;expand=0;" parent="NOBcD5i34oA0I1o-wroY-17" vertex="1">
          <mxGeometry x="160" y="40" width="160" height="1280" as="geometry" />
        </mxCell>
        <mxCell id="NOBcD5i34oA0I1o-wroY-20" value="&lt;span style=&quot;color: rgb(26 , 26 , 26) ; font-family: &amp;#34;opensans&amp;#34; , &amp;#34;arial&amp;#34; , sans-serif , &amp;#34;noto sans hebrew&amp;#34; , &amp;#34;noto sans&amp;#34; , &amp;#34;noto sans jp&amp;#34; , &amp;#34;noto sans kr&amp;#34; ; background-color: rgb(242 , 242 , 242)&quot;&gt;&lt;font style=&quot;font-size: 10px&quot;&gt;Workshops&lt;/font&gt;&lt;/span&gt;" style="swimlane;connectable=0;startSize=40;html=1;whiteSpace=wrap;collapsible=0;recursiveResize=0;expand=0;fontStyle=0" parent="NOBcD5i34oA0I1o-wroY-17" vertex="1">
          <mxGeometry x="320" y="40" width="160" height="1280" as="geometry" />
        </mxCell>
        <mxCell id="NOBcD5i34oA0I1o-wroY-21" value="&lt;span style=&quot;color: rgb(26 , 26 , 26) ; font-family: &amp;#34;opensans&amp;#34; , &amp;#34;arial&amp;#34; , sans-serif , &amp;#34;noto sans hebrew&amp;#34; , &amp;#34;noto sans&amp;#34; , &amp;#34;noto sans jp&amp;#34; , &amp;#34;noto sans kr&amp;#34; ; background-color: rgb(242 , 242 , 242)&quot;&gt;&lt;font style=&quot;font-size: 10px&quot;&gt;Cursus d&#39;arrivée d&#39;une SE&lt;/font&gt;&lt;/span&gt;" style="swimlane;connectable=0;startSize=40;html=1;whiteSpace=wrap;collapsible=0;recursiveResize=0;expand=0;fontStyle=0" parent="NOBcD5i34oA0I1o-wroY-17" vertex="1">
          <mxGeometry x="480" y="40" width="160" height="1280" as="geometry" />
        </mxCell>
        <mxCell id="Qkg7i3cpuD9OE8UDh-O3-2" value="&lt;span style=&quot;color: rgb(26 , 26 , 26) ; font-family: &amp;#34;opensans&amp;#34; , &amp;#34;arial&amp;#34; , sans-serif , &amp;#34;noto sans hebrew&amp;#34; , &amp;#34;noto sans&amp;#34; , &amp;#34;noto sans jp&amp;#34; , &amp;#34;noto sans kr&amp;#34;&quot;&gt;&lt;font style=&quot;font-size: 10px&quot;&gt;1- Présentation globale de la plateforme et de l&#39;outillage disponible&lt;/font&gt;&lt;/span&gt;" style="rounded=0;whiteSpace=wrap;html=1;fillColor=#ffe6cc;strokeColor=#d79b00;" parent="NOBcD5i34oA0I1o-wroY-21" vertex="1">
          <mxGeometry x="10" y="570" width="140" height="50" as="geometry" />
        </mxCell>
        <mxCell id="Qkg7i3cpuD9OE8UDh-O3-3" value="&lt;span style=&quot;color: rgb(26 , 26 , 26) ; font-family: &amp;#34;opensans&amp;#34; , &amp;#34;arial&amp;#34; , sans-serif , &amp;#34;noto sans hebrew&amp;#34; , &amp;#34;noto sans&amp;#34; , &amp;#34;noto sans jp&amp;#34; , &amp;#34;noto sans kr&amp;#34;&quot;&gt;&lt;font style=&quot;font-size: 10px&quot;&gt;3- Présentation Kubernetes&lt;/font&gt;&lt;/span&gt;" style="rounded=0;whiteSpace=wrap;html=1;fillColor=#e1d5e7;strokeColor=#9673a6;" parent="NOBcD5i34oA0I1o-wroY-21" vertex="1">
          <mxGeometry x="10" y="630" width="140" height="50" as="geometry" />
        </mxCell>
        <mxCell id="Qkg7i3cpuD9OE8UDh-O3-4" value="&lt;span style=&quot;color: rgb(26 , 26 , 26) ; font-family: &amp;#34;opensans&amp;#34; , &amp;#34;arial&amp;#34; , sans-serif , &amp;#34;noto sans hebrew&amp;#34; , &amp;#34;noto sans&amp;#34; , &amp;#34;noto sans jp&amp;#34; , &amp;#34;noto sans kr&amp;#34;&quot;&gt;&lt;font style=&quot;font-size: 10px&quot;&gt;4- Debug mon déploiement How to&lt;/font&gt;&lt;/span&gt;" style="rounded=0;whiteSpace=wrap;html=1;fillColor=#ffe6cc;strokeColor=#d79b00;" parent="NOBcD5i34oA0I1o-wroY-21" vertex="1">
          <mxGeometry x="10" y="970" width="140" height="50" as="geometry" />
        </mxCell>
        <mxCell id="Qkg7i3cpuD9OE8UDh-O3-5" value="&lt;span style=&quot;color: rgb(26 , 26 , 26) ; font-family: &amp;#34;opensans&amp;#34; , &amp;#34;arial&amp;#34; , sans-serif , &amp;#34;noto sans hebrew&amp;#34; , &amp;#34;noto sans&amp;#34; , &amp;#34;noto sans jp&amp;#34; , &amp;#34;noto sans kr&amp;#34;&quot;&gt;&lt;font style=&quot;font-size: 10px&quot;&gt;5- Monitoring, Alerting, logs&lt;/font&gt;&lt;/span&gt;" style="rounded=0;whiteSpace=wrap;html=1;fillColor=#ffe6cc;strokeColor=#d79b00;" parent="NOBcD5i34oA0I1o-wroY-21" vertex="1">
          <mxGeometry x="10" y="1030" width="140" height="50" as="geometry" />
        </mxCell>
        <mxCell id="3nuBFxr9cyL0pnOWT2aG-23" value="" style="swimlane;connectable=0;startSize=0;html=1;whiteSpace=wrap;collapsible=0;recursiveResize=0;expand=0;" parent="3nuBFxr9cyL0pnOWT2aG-15" vertex="1">
          <mxGeometry x="1160" width="2560" height="360" as="geometry" />
        </mxCell>
        <mxCell id="NOBcD5i34oA0I1o-wroY-12" value="" style="swimlane;connectable=0;startSize=0;html=1;whiteSpace=wrap;collapsible=0;recursiveResize=0;expand=0;" parent="3nuBFxr9cyL0pnOWT2aG-23" vertex="1">
          <mxGeometry width="640" height="360" as="geometry" />
        </mxCell>
        <mxCell id="NOBcD5i34oA0I1o-wroY-22" value="&lt;span style=&quot;color: rgb(26 , 26 , 26) ; font-family: &amp;#34;opensans&amp;#34; , &amp;#34;arial&amp;#34; , sans-serif , &amp;#34;noto sans hebrew&amp;#34; , &amp;#34;noto sans&amp;#34; , &amp;#34;noto sans jp&amp;#34; , &amp;#34;noto sans kr&amp;#34; ; font-weight: 400 ; background-color: rgb(242 , 242 , 242)&quot;&gt;&lt;font style=&quot;font-size: 14px&quot;&gt;Catalogue de service&lt;/font&gt;&lt;/span&gt;" style="swimlane;connectable=0;startSize=40;html=1;whiteSpace=wrap;collapsible=0;recursiveResize=0;expand=0;" parent="NOBcD5i34oA0I1o-wroY-12" vertex="1">
          <mxGeometry width="640" height="360" as="geometry" />
        </mxCell>
        <mxCell id="NOBcD5i34oA0I1o-wroY-23" value="&lt;span style=&quot;color: rgb(26 , 26 , 26) ; font-family: &amp;#34;opensans&amp;#34; , &amp;#34;arial&amp;#34; , sans-serif , &amp;#34;noto sans hebrew&amp;#34; , &amp;#34;noto sans&amp;#34; , &amp;#34;noto sans jp&amp;#34; , &amp;#34;noto sans kr&amp;#34; ; font-weight: 400 ; background-color: rgb(242 , 242 , 242)&quot;&gt;&lt;font style=&quot;font-size: 10px&quot;&gt;Gestion des secrets centralisée&lt;/font&gt;&lt;/span&gt;" style="swimlane;connectable=0;startSize=40;html=1;whiteSpace=wrap;collapsible=0;recursiveResize=0;expand=0;" parent="NOBcD5i34oA0I1o-wroY-22" vertex="1">
          <mxGeometry y="40" width="160" height="1280" as="geometry" />
        </mxCell>
        <mxCell id="Qkg7i3cpuD9OE8UDh-O3-7" value="&lt;span style=&quot;color: rgb(26 , 26 , 26) ; font-family: &amp;#34;opensans&amp;#34; , &amp;#34;arial&amp;#34; , sans-serif , &amp;#34;noto sans hebrew&amp;#34; , &amp;#34;noto sans&amp;#34; , &amp;#34;noto sans jp&amp;#34; , &amp;#34;noto sans kr&amp;#34;&quot;&gt;&lt;font style=&quot;font-size: 10px&quot;&gt;&lt;strike&gt;IAM sur qui a accès à quoi&lt;/strike&gt;&lt;/font&gt;&lt;/span&gt;" style="rounded=0;whiteSpace=wrap;html=1;fillColor=#e1d5e7;strokeColor=#9673a6;" parent="NOBcD5i34oA0I1o-wroY-23" vertex="1">
          <mxGeometry x="10" y="570" width="140" height="50" as="geometry" />
        </mxCell>
        <mxCell id="NOBcD5i34oA0I1o-wroY-24" value="&lt;span style=&quot;color: rgb(26 , 26 , 26) ; font-family: &amp;#34;opensans&amp;#34; , &amp;#34;arial&amp;#34; , sans-serif , &amp;#34;noto sans hebrew&amp;#34; , &amp;#34;noto sans&amp;#34; , &amp;#34;noto sans jp&amp;#34; , &amp;#34;noto sans kr&amp;#34; ; font-weight: 400 ; background-color: rgb(242 , 242 , 242)&quot;&gt;&lt;font style=&quot;font-size: 10px&quot;&gt;Function As a Service&lt;/font&gt;&lt;/span&gt;" style="swimlane;connectable=0;startSize=40;html=1;whiteSpace=wrap;collapsible=0;recursiveResize=0;expand=0;" parent="NOBcD5i34oA0I1o-wroY-22" vertex="1">
          <mxGeometry x="160" y="40" width="160" height="1280" as="geometry" />
        </mxCell>
        <mxCell id="NOBcD5i34oA0I1o-wroY-25" value="&lt;span style=&quot;color: rgb(26 , 26 , 26) ; font-family: &amp;#34;opensans&amp;#34; , &amp;#34;arial&amp;#34; , sans-serif , &amp;#34;noto sans hebrew&amp;#34; , &amp;#34;noto sans&amp;#34; , &amp;#34;noto sans jp&amp;#34; , &amp;#34;noto sans kr&amp;#34; ; background-color: rgb(242 , 242 , 242)&quot;&gt;&lt;font style=&quot;font-size: 10px&quot;&gt;Sécurité&lt;/font&gt;&lt;/span&gt;" style="swimlane;connectable=0;startSize=40;html=1;whiteSpace=wrap;collapsible=0;recursiveResize=0;expand=0;fontStyle=0" parent="NOBcD5i34oA0I1o-wroY-22" vertex="1">
          <mxGeometry x="320" y="40" width="160" height="1280" as="geometry" />
        </mxCell>
        <mxCell id="NOBcD5i34oA0I1o-wroY-30" value="&lt;span style=&quot;color: rgb(26 , 26 , 26) ; font-family: &amp;#34;opensans&amp;#34; , &amp;#34;arial&amp;#34; , sans-serif , &amp;#34;noto sans hebrew&amp;#34; , &amp;#34;noto sans&amp;#34; , &amp;#34;noto sans jp&amp;#34; , &amp;#34;noto sans kr&amp;#34;&quot;&gt;&lt;font style=&quot;font-size: 10px&quot;&gt;Demander des idées de solution pour identifier les régles OWASP déclenchées&lt;/font&gt;&lt;/span&gt;" style="rounded=0;whiteSpace=wrap;html=1;fillColor=#d5e8d4;strokeColor=#82b366;" parent="NOBcD5i34oA0I1o-wroY-25" vertex="1">
          <mxGeometry x="10" y="330" width="140" height="50" as="geometry" />
        </mxCell>
        <mxCell id="Qkg7i3cpuD9OE8UDh-O3-8" value="&lt;span style=&quot;color: rgb(26 , 26 , 26) ; font-family: &amp;#34;opensans&amp;#34; , &amp;#34;arial&amp;#34; , sans-serif , &amp;#34;noto sans hebrew&amp;#34; , &amp;#34;noto sans&amp;#34; , &amp;#34;noto sans jp&amp;#34; , &amp;#34;noto sans kr&amp;#34;&quot;&gt;&lt;font style=&quot;font-size: 10px&quot;&gt;Identifier les régles OWASP déclenchés par le WAF&lt;/font&gt;&lt;/span&gt;" style="rounded=0;whiteSpace=wrap;html=1;fillColor=#e1d5e7;strokeColor=#9673a6;" parent="NOBcD5i34oA0I1o-wroY-25" vertex="1">
          <mxGeometry x="10" y="690" width="140" height="50" as="geometry" />
        </mxCell>
        <mxCell id="Qkg7i3cpuD9OE8UDh-O3-9" value="&lt;span style=&quot;color: rgb(26 , 26 , 26) ; font-family: &amp;#34;opensans&amp;#34; , &amp;#34;arial&amp;#34; , sans-serif , &amp;#34;noto sans hebrew&amp;#34; , &amp;#34;noto sans&amp;#34; , &amp;#34;noto sans jp&amp;#34; , &amp;#34;noto sans kr&amp;#34;&quot;&gt;&lt;font style=&quot;font-size: 10px&quot;&gt;Etre en capacité d&#39;enclencher les régles de blocages du WAF&lt;/font&gt;&lt;/span&gt;" style="rounded=0;whiteSpace=wrap;html=1;fillColor=#e1d5e7;strokeColor=#9673a6;" parent="NOBcD5i34oA0I1o-wroY-25" vertex="1">
          <mxGeometry x="10" y="630" width="140" height="50" as="geometry" />
        </mxCell>
        <mxCell id="Qkg7i3cpuD9OE8UDh-O3-18" value="&lt;span style=&quot;color: rgb(26 , 26 , 26) ; font-family: &amp;#34;opensans&amp;#34; , &amp;#34;arial&amp;#34; , sans-serif , &amp;#34;noto sans hebrew&amp;#34; , &amp;#34;noto sans&amp;#34; , &amp;#34;noto sans jp&amp;#34; , &amp;#34;noto sans kr&amp;#34;&quot;&gt;&lt;font style=&quot;font-size: 10px&quot;&gt;Etude de sécurité&lt;br&gt;Déployer une plateforme&lt;br&gt;&lt;/font&gt;&lt;/span&gt;" style="rounded=0;whiteSpace=wrap;html=1;fillColor=#e1d5e7;strokeColor=#9673a6;" parent="NOBcD5i34oA0I1o-wroY-25" vertex="1">
          <mxGeometry x="10" y="570" width="140" height="50" as="geometry" />
        </mxCell>
        <mxCell id="NOBcD5i34oA0I1o-wroY-26" value="&lt;p style=&quot;margin: 0px ; padding: 0px ; color: rgb(26 , 26 , 26) ; font-family: &amp;#34;opensans&amp;#34; , &amp;#34;arial&amp;#34; , sans-serif , &amp;#34;noto sans hebrew&amp;#34; , &amp;#34;noto sans&amp;#34; , &amp;#34;noto sans jp&amp;#34; , &amp;#34;noto sans kr&amp;#34; ; background-color: rgb(242 , 242 , 242)&quot;&gt;&lt;font style=&quot;font-size: 10px&quot;&gt;Sécurité&amp;nbsp;&lt;/font&gt;&lt;span style=&quot;font-size: 10px&quot;&gt;des runners&amp;nbsp;&lt;/span&gt;&lt;/p&gt;&lt;p style=&quot;margin: 0px ; padding: 0px ; color: rgb(26 , 26 , 26) ; font-family: &amp;#34;opensans&amp;#34; , &amp;#34;arial&amp;#34; , sans-serif , &amp;#34;noto sans hebrew&amp;#34; , &amp;#34;noto sans&amp;#34; , &amp;#34;noto sans jp&amp;#34; , &amp;#34;noto sans kr&amp;#34; ; background-color: rgb(242 , 242 , 242)&quot;&gt;&lt;span style=&quot;font-size: 10px&quot;&gt;(privileged, droits, etc.)&lt;/span&gt;&lt;/p&gt;" style="swimlane;connectable=0;startSize=40;html=1;whiteSpace=wrap;collapsible=0;recursiveResize=0;expand=0;fontStyle=0" parent="NOBcD5i34oA0I1o-wroY-22" vertex="1">
          <mxGeometry x="480" y="40" width="160" height="1280" as="geometry" />
        </mxCell>
        <mxCell id="Qkg7i3cpuD9OE8UDh-O3-10" value="&lt;span style=&quot;color: rgb(26 , 26 , 26) ; font-family: &amp;#34;opensans&amp;#34; , &amp;#34;arial&amp;#34; , sans-serif , &amp;#34;noto sans hebrew&amp;#34; , &amp;#34;noto sans&amp;#34; , &amp;#34;noto sans jp&amp;#34; , &amp;#34;noto sans kr&amp;#34;&quot;&gt;&lt;font style=&quot;font-size: 10px&quot;&gt;Enlever les droits privileged aux conteneurs de CI&lt;/font&gt;&lt;/span&gt;" style="rounded=0;whiteSpace=wrap;html=1;fillColor=#e1d5e7;strokeColor=#9673a6;" parent="NOBcD5i34oA0I1o-wroY-26" vertex="1">
          <mxGeometry x="10" y="570" width="140" height="50" as="geometry" />
        </mxCell>
        <mxCell id="NOBcD5i34oA0I1o-wroY-38" value="&lt;span style=&quot;color: rgb(26 , 26 , 26) ; font-family: &amp;#34;opensans&amp;#34; , &amp;#34;arial&amp;#34; , sans-serif , &amp;#34;noto sans hebrew&amp;#34; , &amp;#34;noto sans&amp;#34; , &amp;#34;noto sans jp&amp;#34; , &amp;#34;noto sans kr&amp;#34; ; font-weight: 400 ; background-color: rgb(242 , 242 , 242)&quot;&gt;&lt;font style=&quot;font-size: 14px&quot;&gt;Uniformisation&lt;/font&gt;&lt;/span&gt;" style="swimlane;connectable=0;startSize=40;html=1;whiteSpace=wrap;collapsible=0;recursiveResize=0;expand=0;" parent="3nuBFxr9cyL0pnOWT2aG-23" vertex="1">
          <mxGeometry x="640" width="800" height="360" as="geometry" />
        </mxCell>
        <mxCell id="NOBcD5i34oA0I1o-wroY-39" value="&lt;span style=&quot;color: rgb(26 , 26 , 26) ; font-family: &amp;#34;opensans&amp;#34; , &amp;#34;arial&amp;#34; , sans-serif , &amp;#34;noto sans hebrew&amp;#34; , &amp;#34;noto sans&amp;#34; , &amp;#34;noto sans jp&amp;#34; , &amp;#34;noto sans kr&amp;#34; ; font-weight: 400 ; background-color: rgb(242 , 242 , 242)&quot;&gt;&lt;font style=&quot;font-size: 10px&quot;&gt;SE agnostique au stockage&lt;/font&gt;&lt;/span&gt;" style="swimlane;connectable=0;startSize=40;html=1;whiteSpace=wrap;collapsible=0;recursiveResize=0;expand=0;" parent="NOBcD5i34oA0I1o-wroY-38" vertex="1">
          <mxGeometry y="40" width="160" height="1280" as="geometry" />
        </mxCell>
        <mxCell id="NOBcD5i34oA0I1o-wroY-40" value="&lt;font color=&quot;#1a1a1a&quot; face=&quot;opensans, arial, sans-serif, noto sans hebrew, noto sans, noto sans jp, noto sans kr&quot;&gt;&lt;span style=&quot;font-size: 10px ; font-weight: 400 ; background-color: rgb(242 , 242 , 242)&quot;&gt;Généralisation authentification github&lt;/span&gt;&lt;/font&gt;" style="swimlane;connectable=0;startSize=40;html=1;whiteSpace=wrap;collapsible=0;recursiveResize=0;expand=0;" parent="NOBcD5i34oA0I1o-wroY-38" vertex="1">
          <mxGeometry x="160" y="40" width="160" height="1280" as="geometry" />
        </mxCell>
        <mxCell id="NOBcD5i34oA0I1o-wroY-41" value="&lt;span style=&quot;color: rgb(26 , 26 , 26) ; font-family: &amp;#34;opensans&amp;#34; , &amp;#34;arial&amp;#34; , sans-serif , &amp;#34;noto sans hebrew&amp;#34; , &amp;#34;noto sans&amp;#34; , &amp;#34;noto sans jp&amp;#34; , &amp;#34;noto sans kr&amp;#34; ; background-color: rgb(242 , 242 , 242)&quot;&gt;&lt;font style=&quot;font-size: 10px&quot;&gt;Network policies&lt;/font&gt;&lt;/span&gt;" style="swimlane;connectable=0;startSize=40;html=1;whiteSpace=wrap;collapsible=0;recursiveResize=0;expand=0;fontStyle=0" parent="NOBcD5i34oA0I1o-wroY-38" vertex="1">
          <mxGeometry x="320" y="40" width="160" height="1280" as="geometry" />
        </mxCell>
        <mxCell id="NOBcD5i34oA0I1o-wroY-58" value="&lt;span style=&quot;color: rgb(26 , 26 , 26) ; font-family: &amp;#34;opensans&amp;#34; , &amp;#34;arial&amp;#34; , sans-serif , &amp;#34;noto sans hebrew&amp;#34; , &amp;#34;noto sans&amp;#34; , &amp;#34;noto sans jp&amp;#34; , &amp;#34;noto sans kr&amp;#34;&quot;&gt;&lt;font style=&quot;font-size: 10px&quot;&gt;Déployer les networks policies sur les namespaces de produits des SE&lt;/font&gt;&lt;/span&gt;" style="rounded=0;whiteSpace=wrap;html=1;fillColor=#f8cecc;strokeColor=#b85450;" parent="NOBcD5i34oA0I1o-wroY-41" vertex="1">
          <mxGeometry x="10" y="330" width="140" height="50" as="geometry" />
        </mxCell>
        <mxCell id="AWQUAnzGx-YJqW8tpvTz-1" value="&lt;span style=&quot;color: rgb(26 , 26 , 26) ; font-family: &amp;#34;opensans&amp;#34; , &amp;#34;arial&amp;#34; , sans-serif , &amp;#34;noto sans hebrew&amp;#34; , &amp;#34;noto sans&amp;#34; , &amp;#34;noto sans jp&amp;#34; , &amp;#34;noto sans kr&amp;#34;&quot;&gt;&lt;font style=&quot;font-size: 10px&quot;&gt;Déployer les networks policies sur les namespaces de produits transverses&lt;/font&gt;&lt;/span&gt;&lt;span style=&quot;color: rgb(26 , 26 , 26) ; font-family: &amp;#34;opensans&amp;#34; , &amp;#34;arial&amp;#34; , sans-serif , &amp;#34;noto sans hebrew&amp;#34; , &amp;#34;noto sans&amp;#34; , &amp;#34;noto sans jp&amp;#34; , &amp;#34;noto sans kr&amp;#34;&quot;&gt;&lt;font style=&quot;font-size: 10px&quot;&gt;&lt;br&gt;&lt;/font&gt;&lt;/span&gt;" style="rounded=0;whiteSpace=wrap;html=1;fillColor=#e1d5e7;strokeColor=#9673a6;" parent="NOBcD5i34oA0I1o-wroY-41" vertex="1">
          <mxGeometry x="10" y="970" width="140" height="50" as="geometry" />
        </mxCell>
        <mxCell id="AWQUAnzGx-YJqW8tpvTz-2" value="&lt;span style=&quot;color: rgb(26 , 26 , 26) ; font-family: &amp;#34;opensans&amp;#34; , &amp;#34;arial&amp;#34; , sans-serif , &amp;#34;noto sans hebrew&amp;#34; , &amp;#34;noto sans&amp;#34; , &amp;#34;noto sans jp&amp;#34; , &amp;#34;noto sans kr&amp;#34;&quot;&gt;&lt;font style=&quot;font-size: 10px&quot;&gt;Déployer les networks policies sur les namespaces de produits d&#39;infrastructures&lt;/font&gt;&lt;/span&gt;&lt;span style=&quot;color: rgb(26 , 26 , 26) ; font-family: &amp;#34;opensans&amp;#34; , &amp;#34;arial&amp;#34; , sans-serif , &amp;#34;noto sans hebrew&amp;#34; , &amp;#34;noto sans&amp;#34; , &amp;#34;noto sans jp&amp;#34; , &amp;#34;noto sans kr&amp;#34;&quot;&gt;&lt;font style=&quot;font-size: 10px&quot;&gt;&lt;br&gt;&lt;/font&gt;&lt;/span&gt;" style="rounded=0;whiteSpace=wrap;html=1;fillColor=#e1d5e7;strokeColor=#9673a6;" parent="NOBcD5i34oA0I1o-wroY-41" vertex="1">
          <mxGeometry x="10" y="1030" width="140" height="50" as="geometry" />
        </mxCell>
        <mxCell id="NOBcD5i34oA0I1o-wroY-42" value="&lt;p style=&quot;margin: 0px ; padding: 0px ; color: rgb(26 , 26 , 26) ; font-family: &amp;#34;opensans&amp;#34; , &amp;#34;arial&amp;#34; , sans-serif , &amp;#34;noto sans hebrew&amp;#34; , &amp;#34;noto sans&amp;#34; , &amp;#34;noto sans jp&amp;#34; , &amp;#34;noto sans kr&amp;#34; ; background-color: rgb(242 , 242 , 242)&quot;&gt;&lt;span style=&quot;font-size: 10px&quot;&gt;requests, limits, hpa sur les produits&lt;/span&gt;&lt;/p&gt;" style="swimlane;connectable=0;startSize=40;html=1;whiteSpace=wrap;collapsible=0;recursiveResize=0;expand=0;fontStyle=0" parent="NOBcD5i34oA0I1o-wroY-38" vertex="1">
          <mxGeometry x="480" y="40" width="160" height="1280" as="geometry" />
        </mxCell>
        <mxCell id="NOBcD5i34oA0I1o-wroY-48" value="&lt;p style=&quot;margin: 0px ; padding: 0px ; color: rgb(26 , 26 , 26) ; font-family: &amp;#34;opensans&amp;#34; , &amp;#34;arial&amp;#34; , sans-serif , &amp;#34;noto sans hebrew&amp;#34; , &amp;#34;noto sans&amp;#34; , &amp;#34;noto sans jp&amp;#34; , &amp;#34;noto sans kr&amp;#34; ; background-color: rgb(242 , 242 , 242)&quot;&gt;&lt;span style=&quot;font-size: 10px&quot;&gt;Build des images&lt;/span&gt;&lt;/p&gt;&lt;p style=&quot;margin: 0px ; padding: 0px ; color: rgb(26 , 26 , 26) ; font-family: &amp;#34;opensans&amp;#34; , &amp;#34;arial&amp;#34; , sans-serif , &amp;#34;noto sans hebrew&amp;#34; , &amp;#34;noto sans&amp;#34; , &amp;#34;noto sans jp&amp;#34; , &amp;#34;noto sans kr&amp;#34; ; background-color: rgb(242 , 242 , 242)&quot;&gt;&lt;span style=&quot;font-size: 10px&quot;&gt;(Kaniko, harbor, cache)&lt;/span&gt;&lt;/p&gt;" style="swimlane;connectable=0;startSize=40;html=1;whiteSpace=wrap;collapsible=0;recursiveResize=0;expand=0;fontStyle=0" parent="NOBcD5i34oA0I1o-wroY-42" vertex="1">
          <mxGeometry x="160" width="160" height="1280" as="geometry" />
        </mxCell>
        <mxCell id="NOBcD5i34oA0I1o-wroY-60" value="&lt;span style=&quot;color: rgb(26 , 26 , 26) ; font-family: &amp;#34;opensans&amp;#34; , &amp;#34;arial&amp;#34; , sans-serif , &amp;#34;noto sans hebrew&amp;#34; , &amp;#34;noto sans&amp;#34; , &amp;#34;noto sans jp&amp;#34; , &amp;#34;noto sans kr&amp;#34;&quot;&gt;&lt;font style=&quot;font-size: 10px&quot;&gt;Déployer les networks policies sur les namespaces de produits des SE&lt;/font&gt;&lt;/span&gt;" style="rounded=0;whiteSpace=wrap;html=1;fillColor=#d5e8d4;strokeColor=#82b366;" parent="NOBcD5i34oA0I1o-wroY-48" vertex="1">
          <mxGeometry x="10" y="330" width="140" height="50" as="geometry" />
        </mxCell>
        <mxCell id="NOBcD5i34oA0I1o-wroY-61" value="&lt;span style=&quot;color: rgb(26 , 26 , 26) ; font-family: &amp;#34;opensans&amp;#34; , &amp;#34;arial&amp;#34; , sans-serif , &amp;#34;noto sans hebrew&amp;#34; , &amp;#34;noto sans&amp;#34; , &amp;#34;noto sans jp&amp;#34; , &amp;#34;noto sans kr&amp;#34;&quot;&gt;&lt;font style=&quot;font-size: 10px&quot;&gt;Déployer les networks policies sur les namespaces de produits des SE&lt;/font&gt;&lt;/span&gt;" style="rounded=0;whiteSpace=wrap;html=1;fillColor=#d5e8d4;strokeColor=#82b366;" parent="NOBcD5i34oA0I1o-wroY-48" vertex="1">
          <mxGeometry x="10" y="390" width="140" height="50" as="geometry" />
        </mxCell>
        <mxCell id="NOBcD5i34oA0I1o-wroY-62" value="&lt;span style=&quot;color: rgb(26 , 26 , 26) ; font-family: &amp;#34;opensans&amp;#34; , &amp;#34;arial&amp;#34; , sans-serif , &amp;#34;noto sans hebrew&amp;#34; , &amp;#34;noto sans&amp;#34; , &amp;#34;noto sans jp&amp;#34; , &amp;#34;noto sans kr&amp;#34;&quot;&gt;&lt;font style=&quot;font-size: 10px&quot;&gt;Déployer les networks policies sur les namespaces de produits des SE&lt;/font&gt;&lt;/span&gt;" style="rounded=0;whiteSpace=wrap;html=1;fillColor=#d5e8d4;strokeColor=#82b366;" parent="NOBcD5i34oA0I1o-wroY-48" vertex="1">
          <mxGeometry x="10" y="450" width="140" height="50" as="geometry" />
        </mxCell>
        <mxCell id="NOBcD5i34oA0I1o-wroY-59" value="&lt;span style=&quot;color: rgb(26 , 26 , 26) ; font-family: &amp;#34;opensans&amp;#34; , &amp;#34;arial&amp;#34; , sans-serif , &amp;#34;noto sans hebrew&amp;#34; , &amp;#34;noto sans&amp;#34; , &amp;#34;noto sans jp&amp;#34; , &amp;#34;noto sans kr&amp;#34;&quot;&gt;&lt;font style=&quot;font-size: 10px&quot;&gt;Affiner les ressources alloués aux POD (requests,&amp;nbsp; limites)&lt;/font&gt;&lt;/span&gt;" style="rounded=0;whiteSpace=wrap;html=1;fillColor=#d5e8d4;strokeColor=#82b366;" parent="NOBcD5i34oA0I1o-wroY-42" vertex="1">
          <mxGeometry x="10" y="330" width="140" height="50" as="geometry" />
        </mxCell>
        <mxCell id="NOBcD5i34oA0I1o-wroY-43" value="&lt;span style=&quot;color: rgb(26 , 26 , 26) ; font-family: &amp;#34;opensans&amp;#34; , &amp;#34;arial&amp;#34; , sans-serif , &amp;#34;noto sans hebrew&amp;#34; , &amp;#34;noto sans&amp;#34; , &amp;#34;noto sans jp&amp;#34; , &amp;#34;noto sans kr&amp;#34; ; background-color: rgb(242 , 242 , 242)&quot;&gt;&lt;font style=&quot;font-size: 14px&quot;&gt;Gestion des coûts&lt;/font&gt;&lt;/span&gt;" style="swimlane;connectable=0;startSize=40;html=1;whiteSpace=wrap;collapsible=0;recursiveResize=0;expand=0;fontStyle=0" parent="3nuBFxr9cyL0pnOWT2aG-23" vertex="1">
          <mxGeometry x="1440" width="800" height="360" as="geometry" />
        </mxCell>
        <mxCell id="NOBcD5i34oA0I1o-wroY-44" value="&lt;font color=&quot;#1a1a1a&quot; face=&quot;opensans, arial, sans-serif, noto sans hebrew, noto sans, noto sans jp, noto sans kr&quot;&gt;&lt;span style=&quot;font-size: 10px ; font-weight: 400 ; background-color: rgb(242 , 242 , 242)&quot;&gt;Bascule souscription Azure&lt;/span&gt;&lt;/font&gt;" style="swimlane;connectable=0;startSize=40;html=1;whiteSpace=wrap;collapsible=0;recursiveResize=0;expand=0;" parent="NOBcD5i34oA0I1o-wroY-43" vertex="1">
          <mxGeometry y="40" width="160" height="1280" as="geometry" />
        </mxCell>
        <mxCell id="NOBcD5i34oA0I1o-wroY-63" value="&lt;span style=&quot;color: rgb(26 , 26 , 26) ; font-family: &amp;#34;opensans&amp;#34; , &amp;#34;arial&amp;#34; , sans-serif , &amp;#34;noto sans hebrew&amp;#34; , &amp;#34;noto sans&amp;#34; , &amp;#34;noto sans jp&amp;#34; , &amp;#34;noto sans kr&amp;#34;&quot;&gt;&lt;font style=&quot;font-size: 10px&quot;&gt;Déplacement des ressources Azure&lt;/font&gt;&lt;/span&gt;" style="rounded=0;whiteSpace=wrap;html=1;fillColor=#d5e8d4;strokeColor=#82b366;" parent="NOBcD5i34oA0I1o-wroY-44" vertex="1">
          <mxGeometry x="10" y="570" width="140" height="50" as="geometry" />
        </mxCell>
        <mxCell id="NOBcD5i34oA0I1o-wroY-64" value="&lt;span style=&quot;color: rgb(26 , 26 , 26) ; font-family: &amp;#34;opensans&amp;#34; , &amp;#34;arial&amp;#34; , sans-serif , &amp;#34;noto sans hebrew&amp;#34; , &amp;#34;noto sans&amp;#34; , &amp;#34;noto sans jp&amp;#34; , &amp;#34;noto sans kr&amp;#34;&quot;&gt;&lt;font style=&quot;font-size: 10px&quot;&gt;Réinstallation de ressources infra Azure&lt;/font&gt;&lt;/span&gt;" style="rounded=0;whiteSpace=wrap;html=1;fillColor=#d5e8d4;strokeColor=#82b366;" parent="NOBcD5i34oA0I1o-wroY-44" vertex="1">
          <mxGeometry x="10" y="630" width="140" height="50" as="geometry" />
        </mxCell>
        <mxCell id="Z1LP6Y0wAgCE39qLenY3-1" value="&lt;span style=&quot;color: rgb(26 , 26 , 26) ; font-family: &amp;#34;opensans&amp;#34; , &amp;#34;arial&amp;#34; , sans-serif , &amp;#34;noto sans hebrew&amp;#34; , &amp;#34;noto sans&amp;#34; , &amp;#34;noto sans jp&amp;#34; , &amp;#34;noto sans kr&amp;#34;&quot;&gt;&lt;font style=&quot;font-size: 10px&quot;&gt;Déplacement des produits transverses&lt;/font&gt;&lt;/span&gt;" style="rounded=0;whiteSpace=wrap;html=1;fillColor=#e1d5e7;strokeColor=#9673a6;" parent="NOBcD5i34oA0I1o-wroY-44" vertex="1">
          <mxGeometry x="10" y="810" width="140" height="50" as="geometry" />
        </mxCell>
        <mxCell id="Z1LP6Y0wAgCE39qLenY3-2" value="&lt;span style=&quot;color: rgb(26 , 26 , 26) ; font-family: &amp;#34;opensans&amp;#34; , &amp;#34;arial&amp;#34; , sans-serif , &amp;#34;noto sans hebrew&amp;#34; , &amp;#34;noto sans&amp;#34; , &amp;#34;noto sans jp&amp;#34; , &amp;#34;noto sans kr&amp;#34;&quot;&gt;&lt;font style=&quot;font-size: 10px&quot;&gt;Déplacement des produits des SE&lt;/font&gt;&lt;/span&gt;" style="rounded=0;whiteSpace=wrap;html=1;fillColor=#f8cecc;strokeColor=#b85450;" parent="NOBcD5i34oA0I1o-wroY-44" vertex="1">
          <mxGeometry x="10" y="870" width="140" height="50" as="geometry" />
        </mxCell>
        <mxCell id="5cuq9rLPNDD_ueUr0zQJ-1" value="&lt;span style=&quot;color: rgb(26 , 26 , 26) ; font-family: &amp;#34;opensans&amp;#34; , &amp;#34;arial&amp;#34; , sans-serif , &amp;#34;noto sans hebrew&amp;#34; , &amp;#34;noto sans&amp;#34; , &amp;#34;noto sans jp&amp;#34; , &amp;#34;noto sans kr&amp;#34;&quot;&gt;&lt;font style=&quot;font-size: 10px&quot;&gt;Déploiement de ressources SE Azure&lt;/font&gt;&lt;/span&gt;" style="rounded=0;whiteSpace=wrap;html=1;fillColor=#d5e8d4;strokeColor=#82b366;" parent="NOBcD5i34oA0I1o-wroY-44" vertex="1">
          <mxGeometry x="10" y="690" width="140" height="50" as="geometry" />
        </mxCell>
        <mxCell id="5cuq9rLPNDD_ueUr0zQJ-2" value="&lt;span style=&quot;color: rgb(26 , 26 , 26) ; font-family: &amp;#34;opensans&amp;#34; , &amp;#34;arial&amp;#34; , sans-serif , &amp;#34;noto sans hebrew&amp;#34; , &amp;#34;noto sans&amp;#34; , &amp;#34;noto sans jp&amp;#34; , &amp;#34;noto sans kr&amp;#34;&quot;&gt;&lt;font style=&quot;font-size: 10px&quot;&gt;Configruation des produits transverses&lt;/font&gt;&lt;/span&gt;" style="rounded=0;whiteSpace=wrap;html=1;fillColor=#e1d5e7;strokeColor=#9673a6;" parent="NOBcD5i34oA0I1o-wroY-44" vertex="1">
          <mxGeometry x="10" y="750" width="140" height="50" as="geometry" />
        </mxCell>
        <mxCell id="NOBcD5i34oA0I1o-wroY-45" value="&lt;span style=&quot;color: rgb(26 , 26 , 26) ; font-family: &amp;#34;opensans&amp;#34; , &amp;#34;arial&amp;#34; , sans-serif , &amp;#34;noto sans hebrew&amp;#34; , &amp;#34;noto sans&amp;#34; , &amp;#34;noto sans jp&amp;#34; , &amp;#34;noto sans kr&amp;#34; ; font-weight: 400 ; background-color: rgb(242 , 242 , 242)&quot;&gt;&lt;font style=&quot;font-size: 10px&quot;&gt;Gestion multiclouds&lt;/font&gt;&lt;/span&gt;" style="swimlane;connectable=0;startSize=40;html=1;whiteSpace=wrap;collapsible=0;recursiveResize=0;expand=0;" parent="NOBcD5i34oA0I1o-wroY-43" vertex="1">
          <mxGeometry x="160" y="40" width="160" height="1280" as="geometry" />
        </mxCell>
        <mxCell id="Qkg7i3cpuD9OE8UDh-O3-11" value="&lt;span style=&quot;color: rgb(26 , 26 , 26) ; font-family: &amp;#34;opensans&amp;#34; , &amp;#34;arial&amp;#34; , sans-serif , &amp;#34;noto sans hebrew&amp;#34; , &amp;#34;noto sans&amp;#34; , &amp;#34;noto sans jp&amp;#34; , &amp;#34;noto sans kr&amp;#34;&quot;&gt;&lt;font style=&quot;font-size: 10px&quot;&gt;Déployer une plateforme d&#39;hébergement Kubernetes chez un second cloud provider&lt;/font&gt;&lt;/span&gt;" style="rounded=0;whiteSpace=wrap;html=1;fillColor=#e1d5e7;strokeColor=#9673a6;" parent="NOBcD5i34oA0I1o-wroY-45" vertex="1">
          <mxGeometry x="10" y="570" width="140" height="50" as="geometry" />
        </mxCell>
        <mxCell id="NOBcD5i34oA0I1o-wroY-46" value="&lt;span style=&quot;color: rgb(26 , 26 , 26) ; font-family: &amp;#34;opensans&amp;#34; , &amp;#34;arial&amp;#34; , sans-serif , &amp;#34;noto sans hebrew&amp;#34; , &amp;#34;noto sans&amp;#34; , &amp;#34;noto sans jp&amp;#34; , &amp;#34;noto sans kr&amp;#34; ; background-color: rgb(242 , 242 , 242)&quot;&gt;&lt;font style=&quot;font-size: 10px&quot;&gt;Nettoyage des environnements&lt;/font&gt;&lt;/span&gt;" style="swimlane;connectable=0;startSize=40;html=1;whiteSpace=wrap;collapsible=0;recursiveResize=0;expand=0;fontStyle=0" parent="NOBcD5i34oA0I1o-wroY-43" vertex="1">
          <mxGeometry x="320" y="40" width="160" height="1280" as="geometry" />
        </mxCell>
        <mxCell id="NOBcD5i34oA0I1o-wroY-47" value="&lt;p style=&quot;margin: 0px ; padding: 0px ; color: rgb(26 , 26 , 26) ; font-family: &amp;#34;opensans&amp;#34; , &amp;#34;arial&amp;#34; , sans-serif , &amp;#34;noto sans hebrew&amp;#34; , &amp;#34;noto sans&amp;#34; , &amp;#34;noto sans jp&amp;#34; , &amp;#34;noto sans kr&amp;#34; ; background-color: rgb(242 , 242 , 242)&quot;&gt;&lt;span style=&quot;font-size: 10px&quot;&gt;Analyse des coûts&lt;/span&gt;&lt;/p&gt;" style="swimlane;connectable=0;startSize=40;html=1;whiteSpace=wrap;collapsible=0;recursiveResize=0;expand=0;fontStyle=0" parent="NOBcD5i34oA0I1o-wroY-43" vertex="1">
          <mxGeometry x="480" y="40" width="160" height="1280" as="geometry" />
        </mxCell>
        <mxCell id="NOBcD5i34oA0I1o-wroY-49" value="&lt;p style=&quot;margin: 0px ; padding: 0px ; color: rgb(26 , 26 , 26) ; font-family: &amp;#34;opensans&amp;#34; , &amp;#34;arial&amp;#34; , sans-serif , &amp;#34;noto sans hebrew&amp;#34; , &amp;#34;noto sans&amp;#34; , &amp;#34;noto sans jp&amp;#34; , &amp;#34;noto sans kr&amp;#34; ; background-color: rgb(242 , 242 , 242)&quot;&gt;&lt;span style=&quot;font-size: 10px&quot;&gt;sortir de gitlab ee&lt;/span&gt;&lt;/p&gt;" style="swimlane;connectable=0;startSize=40;html=1;whiteSpace=wrap;collapsible=0;recursiveResize=0;expand=0;fontStyle=0" parent="NOBcD5i34oA0I1o-wroY-43" vertex="1">
          <mxGeometry x="640" y="40" width="160" height="1280" as="geometry" />
        </mxCell>
        <mxCell id="NOBcD5i34oA0I1o-wroY-95" value="&lt;span style=&quot;color: rgb(26 , 26 , 26) ; font-family: &amp;#34;opensans&amp;#34; , &amp;#34;arial&amp;#34; , sans-serif , &amp;#34;noto sans hebrew&amp;#34; , &amp;#34;noto sans&amp;#34; , &amp;#34;noto sans jp&amp;#34; , &amp;#34;noto sans kr&amp;#34;&quot;&gt;&lt;font style=&quot;font-size: 10px&quot;&gt;identifier les fonctionnalités ee utilisées par les équipes&lt;/font&gt;&lt;/span&gt;" style="rounded=0;whiteSpace=wrap;html=1;fillColor=#ffe6cc;strokeColor=#d79b00;" parent="NOBcD5i34oA0I1o-wroY-49" vertex="1">
          <mxGeometry x="10" y="50" width="140" height="50" as="geometry" />
        </mxCell>
        <mxCell id="NOBcD5i34oA0I1o-wroY-96" value="&lt;span style=&quot;color: rgb(26 , 26 , 26) ; font-family: &amp;#34;opensans&amp;#34; , &amp;#34;arial&amp;#34; , sans-serif , &amp;#34;noto sans hebrew&amp;#34; , &amp;#34;noto sans&amp;#34; , &amp;#34;noto sans jp&amp;#34; , &amp;#34;noto sans kr&amp;#34;&quot;&gt;&lt;font style=&quot;font-size: 10px&quot;&gt;identifier les solutions pour sortir de gitlab ee&lt;/font&gt;&lt;/span&gt;" style="rounded=0;whiteSpace=wrap;html=1;fillColor=#ffe6cc;strokeColor=#d79b00;" parent="NOBcD5i34oA0I1o-wroY-49" vertex="1">
          <mxGeometry x="10" y="110" width="140" height="50" as="geometry" />
        </mxCell>
        <mxCell id="NOBcD5i34oA0I1o-wroY-97" value="&lt;span style=&quot;color: rgb(26 , 26 , 26) ; font-family: &amp;#34;opensans&amp;#34; , &amp;#34;arial&amp;#34; , sans-serif , &amp;#34;noto sans hebrew&amp;#34; , &amp;#34;noto sans&amp;#34; , &amp;#34;noto sans jp&amp;#34; , &amp;#34;noto sans kr&amp;#34;&quot;&gt;&lt;font style=&quot;font-size: 10px&quot;&gt;implémenter le scénario retenu pour la sortie de gitlab ee&lt;/font&gt;&lt;/span&gt;" style="rounded=0;whiteSpace=wrap;html=1;fillColor=#ffe6cc;strokeColor=#d79b00;" parent="NOBcD5i34oA0I1o-wroY-49" vertex="1">
          <mxGeometry x="10" y="170" width="140" height="50" as="geometry" />
        </mxCell>
        <mxCell id="NOBcD5i34oA0I1o-wroY-50" value="&lt;span style=&quot;color: rgb(26 , 26 , 26) ; font-family: &amp;#34;opensans&amp;#34; , &amp;#34;arial&amp;#34; , sans-serif , &amp;#34;noto sans hebrew&amp;#34; , &amp;#34;noto sans&amp;#34; , &amp;#34;noto sans jp&amp;#34; , &amp;#34;noto sans kr&amp;#34; ; background-color: rgb(242 , 242 , 242)&quot;&gt;&lt;font style=&quot;font-size: 14px&quot;&gt;Gestion de la qualité&lt;/font&gt;&lt;/span&gt;" style="swimlane;connectable=0;startSize=40;html=1;whiteSpace=wrap;collapsible=0;recursiveResize=0;expand=0;fontStyle=0" parent="3nuBFxr9cyL0pnOWT2aG-23" vertex="1">
          <mxGeometry x="2240" width="320" height="360" as="geometry" />
        </mxCell>
        <mxCell id="NOBcD5i34oA0I1o-wroY-51" value="&lt;span style=&quot;color: rgb(26 , 26 , 26) ; font-family: &amp;#34;opensans&amp;#34; , &amp;#34;arial&amp;#34; , sans-serif , &amp;#34;noto sans hebrew&amp;#34; , &amp;#34;noto sans&amp;#34; , &amp;#34;noto sans jp&amp;#34; , &amp;#34;noto sans kr&amp;#34; ; font-weight: 400 ; background-color: rgb(242 , 242 , 242)&quot;&gt;&lt;font style=&quot;font-size: 10px&quot;&gt;Accessibilité&lt;/font&gt;&lt;/span&gt;" style="swimlane;connectable=0;startSize=40;html=1;whiteSpace=wrap;collapsible=0;recursiveResize=0;expand=0;" parent="NOBcD5i34oA0I1o-wroY-50" vertex="1">
          <mxGeometry y="40" width="160" height="1280" as="geometry" />
        </mxCell>
        <mxCell id="NOBcD5i34oA0I1o-wroY-52" value="&lt;p style=&quot;margin: 0px ; padding: 0px ; color: rgb(26 , 26 , 26) ; font-weight: 400 ; background-color: rgb(242 , 242 , 242)&quot;&gt;&lt;font face=&quot;opensans&quot;&gt;&lt;span style=&quot;font-size: 10px&quot;&gt;Code quality&lt;/span&gt;&lt;/font&gt;&lt;/p&gt;&lt;p style=&quot;margin: 0px ; padding: 0px ; color: rgb(26 , 26 , 26) ; font-weight: 400 ; background-color: rgb(242 , 242 , 242)&quot;&gt;&lt;font face=&quot;opensans&quot;&gt;&lt;span style=&quot;font-size: 10px&quot;&gt;(sonarqube, lint, code coverage)&lt;/span&gt;&lt;/font&gt;&lt;/p&gt;" style="swimlane;connectable=0;startSize=40;html=1;whiteSpace=wrap;collapsible=0;recursiveResize=0;expand=0;" parent="NOBcD5i34oA0I1o-wroY-50" vertex="1">
          <mxGeometry x="160" y="40" width="160" height="1280" as="geometry" />
        </mxCell>
        <mxCell id="Qkg7i3cpuD9OE8UDh-O3-12" value="&lt;span style=&quot;color: rgb(26 , 26 , 26) ; font-family: &amp;#34;opensans&amp;#34; , &amp;#34;arial&amp;#34; , sans-serif , &amp;#34;noto sans hebrew&amp;#34; , &amp;#34;noto sans&amp;#34; , &amp;#34;noto sans jp&amp;#34; , &amp;#34;noto sans kr&amp;#34;&quot;&gt;&lt;font style=&quot;font-size: 10px&quot;&gt;Mettre en place un outil de mesure de l&#39;accessibilité des produits des SE et de sont évol dans le temps&lt;/font&gt;&lt;/span&gt;" style="rounded=0;whiteSpace=wrap;html=1;fillColor=#f8cecc;strokeColor=#b85450;" parent="NOBcD5i34oA0I1o-wroY-52" vertex="1">
          <mxGeometry x="10" y="570" width="140" height="60" as="geometry" />
        </mxCell>
        <mxCell id="Qkg7i3cpuD9OE8UDh-O3-13" value="&lt;span style=&quot;color: rgb(26 , 26 , 26) ; font-family: &amp;#34;opensans&amp;#34; , &amp;#34;arial&amp;#34; , sans-serif , &amp;#34;noto sans hebrew&amp;#34; , &amp;#34;noto sans&amp;#34; , &amp;#34;noto sans jp&amp;#34; , &amp;#34;noto sans kr&amp;#34;&quot;&gt;&lt;font style=&quot;font-size: 10px&quot;&gt;Préciser les objectifs attendus sur la qualité de code&lt;/font&gt;&lt;/span&gt;" style="rounded=0;whiteSpace=wrap;html=1;fillColor=#f8cecc;strokeColor=#b85450;" parent="NOBcD5i34oA0I1o-wroY-52" vertex="1">
          <mxGeometry x="10" y="640" width="140" height="50" as="geometry" />
        </mxCell>
        <mxCell id="Qkg7i3cpuD9OE8UDh-O3-14" value="&lt;span style=&quot;color: rgb(26 , 26 , 26) ; font-family: &amp;#34;opensans&amp;#34; , &amp;#34;arial&amp;#34; , sans-serif , &amp;#34;noto sans hebrew&amp;#34; , &amp;#34;noto sans&amp;#34; , &amp;#34;noto sans jp&amp;#34; , &amp;#34;noto sans kr&amp;#34;&quot;&gt;&lt;font style=&quot;font-size: 10px&quot;&gt;intégrer un outil de mesure de qualité de codes&lt;/font&gt;&lt;/span&gt;" style="rounded=0;whiteSpace=wrap;html=1;" parent="NOBcD5i34oA0I1o-wroY-52" vertex="1">
          <mxGeometry x="10" y="50" width="140" height="50" as="geometry" />
        </mxCell>
        <mxCell id="Qkg7i3cpuD9OE8UDh-O3-15" value="&lt;span style=&quot;color: rgb(26 , 26 , 26) ; font-family: &amp;#34;opensans&amp;#34; , &amp;#34;arial&amp;#34; , sans-serif , &amp;#34;noto sans hebrew&amp;#34; , &amp;#34;noto sans&amp;#34; , &amp;#34;noto sans jp&amp;#34; , &amp;#34;noto sans kr&amp;#34;&quot;&gt;&lt;font style=&quot;font-size: 10px&quot;&gt;Intégrer un outil de tests unitaires&lt;/font&gt;&lt;/span&gt;" style="rounded=0;whiteSpace=wrap;html=1;" parent="NOBcD5i34oA0I1o-wroY-52" vertex="1">
          <mxGeometry x="10" y="110" width="140" height="50" as="geometry" />
        </mxCell>
        <mxCell id="Qkg7i3cpuD9OE8UDh-O3-16" value="&lt;span style=&quot;color: rgb(26 , 26 , 26) ; font-family: &amp;#34;opensans&amp;#34; , &amp;#34;arial&amp;#34; , sans-serif , &amp;#34;noto sans hebrew&amp;#34; , &amp;#34;noto sans&amp;#34; , &amp;#34;noto sans jp&amp;#34; , &amp;#34;noto sans kr&amp;#34;&quot;&gt;&lt;font style=&quot;font-size: 10px&quot;&gt;Déployer un outil de tests de charges&lt;/font&gt;&lt;/span&gt;" style="rounded=0;whiteSpace=wrap;html=1;" parent="NOBcD5i34oA0I1o-wroY-52" vertex="1">
          <mxGeometry x="10" y="170" width="140" height="50" as="geometry" />
        </mxCell>
        <mxCell id="Qkg7i3cpuD9OE8UDh-O3-17" value="&lt;span style=&quot;color: rgb(26 , 26 , 26) ; font-family: &amp;#34;opensans&amp;#34; , &amp;#34;arial&amp;#34; , sans-serif , &amp;#34;noto sans hebrew&amp;#34; , &amp;#34;noto sans&amp;#34; , &amp;#34;noto sans jp&amp;#34; , &amp;#34;noto sans kr&amp;#34;&quot;&gt;&lt;font style=&quot;font-size: 10px&quot;&gt;Intégrer un outil de tests de charges&lt;/font&gt;&lt;/span&gt;" style="rounded=0;whiteSpace=wrap;html=1;" parent="NOBcD5i34oA0I1o-wroY-52" vertex="1">
          <mxGeometry x="10" y="230" width="140" height="50" as="geometry" />
        </mxCell>
        <mxCell id="NOBcD5i34oA0I1o-wroY-1" value="Release Avril 2021" style="swimlane;horizontal=0;points=[[0,0.5],[1,0.5]];portConstraint=eastwest;startSize=40;html=1;whiteSpace=wrap;collapsible=0;recursiveResize=0;expand=0;" parent="1" vertex="1">
          <mxGeometry x="920" y="440" width="3720" height="240" as="geometry" />
        </mxCell>
        <mxCell id="3nuBFxr9cyL0pnOWT2aG-7" value="&lt;span style=&quot;color: rgb(26 , 26 , 26) ; font-family: &amp;#34;opensans&amp;#34; , &amp;#34;arial&amp;#34; , sans-serif , &amp;#34;noto sans hebrew&amp;#34; , &amp;#34;noto sans&amp;#34; , &amp;#34;noto sans jp&amp;#34; , &amp;#34;noto sans kr&amp;#34;&quot;&gt;&lt;font style=&quot;font-size: 10px&quot;&gt;Discution pour confirmer la solution vault&lt;/font&gt;&lt;/span&gt;" style="rounded=0;whiteSpace=wrap;html=1;fillColor=#d5e8d4;strokeColor=#82b366;" parent="NOBcD5i34oA0I1o-wroY-1" vertex="1">
          <mxGeometry x="1170" y="10" width="140" height="50" as="geometry" />
        </mxCell>
        <mxCell id="NOBcD5i34oA0I1o-wroY-27" value="&lt;span style=&quot;color: rgb(26 , 26 , 26) ; font-family: &amp;#34;opensans&amp;#34; , &amp;#34;arial&amp;#34; , sans-serif , &amp;#34;noto sans hebrew&amp;#34; , &amp;#34;noto sans&amp;#34; , &amp;#34;noto sans jp&amp;#34; , &amp;#34;noto sans kr&amp;#34;&quot;&gt;&lt;font style=&quot;font-size: 10px&quot;&gt;&lt;strike&gt;Déporter les secrets des produits de kubernetes vers (Hashicorp vault)&lt;/strike&gt;&lt;/font&gt;&lt;/span&gt;" style="rounded=0;whiteSpace=wrap;html=1;fillColor=#e1d5e7;strokeColor=#9673a6;" parent="NOBcD5i34oA0I1o-wroY-1" vertex="1">
          <mxGeometry x="1170" y="70" width="140" height="50" as="geometry" />
        </mxCell>
        <mxCell id="NOBcD5i34oA0I1o-wroY-31" value="&lt;span style=&quot;color: rgb(26 , 26 , 26) ; font-family: &amp;#34;opensans&amp;#34; , &amp;#34;arial&amp;#34; , sans-serif , &amp;#34;noto sans hebrew&amp;#34; , &amp;#34;noto sans&amp;#34; , &amp;#34;noto sans jp&amp;#34; , &amp;#34;noto sans kr&amp;#34;&quot;&gt;&lt;font style=&quot;font-size: 10px&quot;&gt;Créer des comptes usr pour restreindre les droits et périmétres pour réaliser les builds&lt;/font&gt;&lt;/span&gt;" style="rounded=0;whiteSpace=wrap;html=1;fillColor=#d5e8d4;strokeColor=#82b366;" parent="NOBcD5i34oA0I1o-wroY-1" vertex="1">
          <mxGeometry x="1650" y="10" width="140" height="50" as="geometry" />
        </mxCell>
        <mxCell id="NOBcD5i34oA0I1o-wroY-32" value="Release Mai 2021" style="swimlane;horizontal=0;points=[[0,0.5],[1,0.5]];portConstraint=eastwest;startSize=40;html=1;whiteSpace=wrap;collapsible=0;recursiveResize=0;expand=0;" parent="1" vertex="1">
          <mxGeometry x="920" y="680" width="3720" height="400" as="geometry" />
        </mxCell>
        <mxCell id="NOBcD5i34oA0I1o-wroY-37" value="Release Juin 2021" style="swimlane;horizontal=0;points=[[0,0.5],[1,0.5]];portConstraint=eastwest;startSize=40;html=1;whiteSpace=wrap;collapsible=0;recursiveResize=0;expand=0;" parent="1" vertex="1">
          <mxGeometry x="920" y="1080" width="3720" height="280" as="geometry" />
        </mxCell>
        <mxCell id="NOBcD5i34oA0I1o-wroY-57" value="Nice to have" style="swimlane;horizontal=0;points=[[0,0.5],[1,0.5]];portConstraint=eastwest;startSize=40;html=1;whiteSpace=wrap;collapsible=0;recursiveResize=0;expand=0;" parent="1" vertex="1">
          <mxGeometry x="920" y="1840" width="3720" height="320" as="geometry" />
        </mxCell>
        <mxCell id="AWQUAnzGx-YJqW8tpvTz-22" value="&lt;span style=&quot;color: rgb(26 , 26 , 26) ; font-family: &amp;#34;opensans&amp;#34; , &amp;#34;arial&amp;#34; , sans-serif , &amp;#34;noto sans hebrew&amp;#34; , &amp;#34;noto sans&amp;#34; , &amp;#34;noto sans jp&amp;#34; , &amp;#34;noto sans kr&amp;#34;&quot;&gt;&lt;font style=&quot;font-size: 10px&quot;&gt;Identifier un produit et les cas d&#39;sages associés de function as a service&lt;/font&gt;&lt;/span&gt;" style="rounded=0;whiteSpace=wrap;html=1;fillColor=#f5f5f5;strokeColor=#666666;fontColor=#333333;" parent="NOBcD5i34oA0I1o-wroY-57" vertex="1">
          <mxGeometry x="1330" y="10" width="140" height="50" as="geometry" />
        </mxCell>
        <mxCell id="AWQUAnzGx-YJqW8tpvTz-23" value="&lt;span style=&quot;color: rgb(26 , 26 , 26) ; font-family: &amp;#34;opensans&amp;#34; , &amp;#34;arial&amp;#34; , sans-serif , &amp;#34;noto sans hebrew&amp;#34; , &amp;#34;noto sans&amp;#34; , &amp;#34;noto sans jp&amp;#34; , &amp;#34;noto sans kr&amp;#34;&quot;&gt;&lt;font style=&quot;font-size: 10px&quot;&gt;Créer automatiquement des conteneurs signés sur Harbor&lt;/font&gt;&lt;/span&gt;" style="rounded=0;whiteSpace=wrap;html=1;fillColor=#f5f5f5;strokeColor=#666666;fontColor=#333333;" parent="NOBcD5i34oA0I1o-wroY-57" vertex="1">
          <mxGeometry x="2450" y="10" width="140" height="50" as="geometry" />
        </mxCell>
        <mxCell id="AWQUAnzGx-YJqW8tpvTz-24" value="&lt;span style=&quot;color: rgb(26 , 26 , 26) ; font-family: &amp;#34;opensans&amp;#34; , &amp;#34;arial&amp;#34; , sans-serif , &amp;#34;noto sans hebrew&amp;#34; , &amp;#34;noto sans&amp;#34; , &amp;#34;noto sans jp&amp;#34; , &amp;#34;noto sans kr&amp;#34;&quot;&gt;&lt;font style=&quot;font-size: 10px&quot;&gt;Déployer uniquement des images signées en PROD&lt;/font&gt;&lt;/span&gt;" style="rounded=0;whiteSpace=wrap;html=1;fillColor=#f5f5f5;strokeColor=#666666;fontColor=#333333;" parent="NOBcD5i34oA0I1o-wroY-57" vertex="1">
          <mxGeometry x="2450" y="70" width="140" height="50" as="geometry" />
        </mxCell>
        <mxCell id="AWQUAnzGx-YJqW8tpvTz-19" value="&lt;span style=&quot;color: rgb(26 , 26 , 26) ; font-family: &amp;#34;opensans&amp;#34; , &amp;#34;arial&amp;#34; , sans-serif , &amp;#34;noto sans hebrew&amp;#34; , &amp;#34;noto sans&amp;#34; , &amp;#34;noto sans jp&amp;#34; , &amp;#34;noto sans kr&amp;#34;&quot;&gt;&lt;font style=&quot;font-size: 10px&quot;&gt;Utilisation d&#39;un cache pour les packages npm&lt;/font&gt;&lt;/span&gt;" style="rounded=0;whiteSpace=wrap;html=1;fillColor=#f5f5f5;strokeColor=#666666;fontColor=#333333;" parent="NOBcD5i34oA0I1o-wroY-57" vertex="1">
          <mxGeometry x="2610" y="10" width="140" height="50" as="geometry" />
        </mxCell>
        <mxCell id="AWQUAnzGx-YJqW8tpvTz-16" value="&lt;span style=&quot;color: rgb(26 , 26 , 26) ; font-family: &amp;#34;opensans&amp;#34; , &amp;#34;arial&amp;#34; , sans-serif , &amp;#34;noto sans hebrew&amp;#34; , &amp;#34;noto sans&amp;#34; , &amp;#34;noto sans jp&amp;#34; , &amp;#34;noto sans kr&amp;#34;&quot;&gt;&lt;font style=&quot;font-size: 10px&quot;&gt;Paramétrer le HPA sur les POD des produits des SE&lt;/font&gt;&lt;/span&gt;" style="rounded=0;whiteSpace=wrap;html=1;fillColor=#f5f5f5;strokeColor=#666666;fontColor=#333333;" parent="NOBcD5i34oA0I1o-wroY-57" vertex="1">
          <mxGeometry x="2290" y="10" width="140" height="50" as="geometry" />
        </mxCell>
        <mxCell id="B5dBP7y0pzLa89D12gk2-5" value="&lt;font style=&quot;font-size: 10px&quot;&gt;&lt;span style=&quot;color: rgb(26 , 26 , 26) ; font-family: &amp;#34;opensans&amp;#34; , &amp;#34;arial&amp;#34; , sans-serif , &amp;#34;noto sans hebrew&amp;#34; , &amp;#34;noto sans&amp;#34; , &amp;#34;noto sans jp&amp;#34; , &amp;#34;noto sans kr&amp;#34;&quot;&gt;Mesurer le score des terminaisons HTTPS des produits transverses (&lt;/span&gt;&lt;a href=&quot;https://securityheaders.com/&quot; target=&quot;_blank&quot; style=&quot;color: rgb(53 , 120 , 255) ; display: inline ; font-family: &amp;#34;opensans&amp;#34; , &amp;#34;arial&amp;#34; , sans-serif , &amp;#34;noto sans hebrew&amp;#34; , &amp;#34;noto sans&amp;#34; , &amp;#34;noto sans jp&amp;#34; , &amp;#34;noto sans kr&amp;#34;&quot;&gt;https://securityheaders.com/&lt;/a&gt;&lt;span style=&quot;color: rgb(26 , 26 , 26) ; font-family: &amp;#34;opensans&amp;#34; , &amp;#34;arial&amp;#34; , sans-serif , &amp;#34;noto sans hebrew&amp;#34; , &amp;#34;noto sans&amp;#34; , &amp;#34;noto sans jp&amp;#34; , &amp;#34;noto sans kr&amp;#34;&quot;&gt;)&lt;/span&gt;&lt;/font&gt;" style="rounded=0;whiteSpace=wrap;html=1;fillColor=#f5f5f5;strokeColor=#666666;fontColor=#333333;" vertex="1" parent="NOBcD5i34oA0I1o-wroY-57">
          <mxGeometry x="3570" y="10" width="140" height="50" as="geometry" />
        </mxCell>
        <mxCell id="B5dBP7y0pzLa89D12gk2-6" value="&lt;span style=&quot;color: rgb(26 , 26 , 26) ; font-family: &amp;#34;opensans&amp;#34; , &amp;#34;arial&amp;#34; , sans-serif , &amp;#34;noto sans hebrew&amp;#34; , &amp;#34;noto sans&amp;#34; , &amp;#34;noto sans jp&amp;#34; , &amp;#34;noto sans kr&amp;#34;&quot;&gt;&lt;font style=&quot;font-size: 10px&quot;&gt;Mesurer le scores de vulnérabilités des images&lt;/font&gt;&lt;/span&gt;" style="rounded=0;whiteSpace=wrap;html=1;fillColor=#f5f5f5;strokeColor=#666666;fontColor=#333333;" vertex="1" parent="NOBcD5i34oA0I1o-wroY-57">
          <mxGeometry x="3570" y="70" width="140" height="50" as="geometry" />
        </mxCell>
        <mxCell id="B5dBP7y0pzLa89D12gk2-7" value="&lt;span style=&quot;color: rgb(26 , 26 , 26) ; font-family: &amp;#34;opensans&amp;#34; , &amp;#34;arial&amp;#34; , sans-serif , &amp;#34;noto sans hebrew&amp;#34; , &amp;#34;noto sans&amp;#34; , &amp;#34;noto sans jp&amp;#34; , &amp;#34;noto sans kr&amp;#34;&quot;&gt;&lt;font style=&quot;font-size: 10px&quot;&gt;Mesurer le score OWASP des produits&lt;/font&gt;&lt;/span&gt;" style="rounded=0;whiteSpace=wrap;html=1;fillColor=#f5f5f5;strokeColor=#666666;fontColor=#333333;" vertex="1" parent="NOBcD5i34oA0I1o-wroY-57">
          <mxGeometry x="3570" y="135" width="140" height="50" as="geometry" />
        </mxCell>
        <mxCell id="AWQUAnzGx-YJqW8tpvTz-21" value="&lt;span style=&quot;color: rgb(26 , 26 , 26) ; font-family: &amp;#34;opensans&amp;#34; , &amp;#34;arial&amp;#34; , sans-serif , &amp;#34;noto sans hebrew&amp;#34; , &amp;#34;noto sans&amp;#34; , &amp;#34;noto sans jp&amp;#34; , &amp;#34;noto sans kr&amp;#34;&quot;&gt;&lt;font style=&quot;font-size: 10px&quot;&gt;Calculer le ratio cout ressources consommées / ressources demandées&lt;/font&gt;&lt;/span&gt;" style="rounded=0;whiteSpace=wrap;html=1;fillColor=#f5f5f5;strokeColor=#666666;fontColor=#333333;" parent="NOBcD5i34oA0I1o-wroY-57" vertex="1">
          <mxGeometry x="3090" y="70" width="140" height="50" as="geometry" />
        </mxCell>
        <mxCell id="AWQUAnzGx-YJqW8tpvTz-20" value="&lt;span style=&quot;color: rgb(26 , 26 , 26) ; font-family: &amp;#34;opensans&amp;#34; , &amp;#34;arial&amp;#34; , sans-serif , &amp;#34;noto sans hebrew&amp;#34; , &amp;#34;noto sans&amp;#34; , &amp;#34;noto sans jp&amp;#34; , &amp;#34;noto sans kr&amp;#34;&quot;&gt;&lt;font style=&quot;font-size: 10px&quot;&gt;Calculer le cout de l&#39;hébergement d&#39;un produit&lt;/font&gt;&lt;/span&gt;" style="rounded=0;whiteSpace=wrap;html=1;fillColor=#f5f5f5;strokeColor=#666666;fontColor=#333333;" parent="NOBcD5i34oA0I1o-wroY-57" vertex="1">
          <mxGeometry x="3090" y="10" width="140" height="50" as="geometry" />
        </mxCell>
        <mxCell id="B5dBP7y0pzLa89D12gk2-8" value="&lt;span style=&quot;color: rgb(26 , 26 , 26) ; font-family: &amp;#34;opensans&amp;#34; , &amp;#34;arial&amp;#34; , sans-serif , &amp;#34;noto sans hebrew&amp;#34; , &amp;#34;noto sans&amp;#34; , &amp;#34;noto sans jp&amp;#34; , &amp;#34;noto sans kr&amp;#34;&quot;&gt;&lt;font style=&quot;font-size: 10px&quot;&gt;Faciliter l&#39;accès aux produits pour les clients en implémentant l&#39;authentification via github sur les produits transverses&lt;/font&gt;&lt;/span&gt;" style="rounded=0;whiteSpace=wrap;html=1;fillColor=#f5f5f5;strokeColor=#666666;fontColor=#333333;" vertex="1" parent="NOBcD5i34oA0I1o-wroY-57">
          <mxGeometry x="1970" y="10" width="140" height="70" as="geometry" />
        </mxCell>
        <mxCell id="Z1LP6Y0wAgCE39qLenY3-7" value="&lt;p style=&quot;margin: 0px ; padding: 0px ; color: rgb(26 , 26 , 26) ; font-weight: 400&quot;&gt;&lt;font face=&quot;opensans&quot;&gt;&lt;span style=&quot;font-size: 10px&quot;&gt;Légende&lt;/span&gt;&lt;/font&gt;&lt;/p&gt;" style="swimlane;connectable=0;startSize=40;html=1;whiteSpace=wrap;collapsible=0;recursiveResize=0;expand=0;" parent="1" vertex="1">
          <mxGeometry x="270" y="40" width="610" height="90" as="geometry" />
        </mxCell>
        <mxCell id="Z1LP6Y0wAgCE39qLenY3-3" value="&lt;span style=&quot;color: rgb(26 , 26 , 26) ; font-family: &amp;#34;opensans&amp;#34; , &amp;#34;arial&amp;#34; , sans-serif , &amp;#34;noto sans hebrew&amp;#34; , &amp;#34;noto sans&amp;#34; , &amp;#34;noto sans jp&amp;#34; , &amp;#34;noto sans kr&amp;#34;&quot;&gt;&lt;font style=&quot;font-size: 10px&quot;&gt;Terminé&lt;/font&gt;&lt;/span&gt;" style="rounded=0;whiteSpace=wrap;html=1;fillColor=#d5e8d4;strokeColor=#82b366;" parent="Z1LP6Y0wAgCE39qLenY3-7" vertex="1">
          <mxGeometry x="460" y="50" width="140" height="30" as="geometry" />
        </mxCell>
        <mxCell id="Z1LP6Y0wAgCE39qLenY3-4" value="&lt;span style=&quot;color: rgb(26 , 26 , 26) ; font-family: &amp;#34;opensans&amp;#34; , &amp;#34;arial&amp;#34; , sans-serif , &amp;#34;noto sans hebrew&amp;#34; , &amp;#34;noto sans&amp;#34; , &amp;#34;noto sans jp&amp;#34; , &amp;#34;noto sans kr&amp;#34;&quot;&gt;&lt;font style=&quot;font-size: 10px&quot;&gt;SRE&lt;/font&gt;&lt;/span&gt;" style="rounded=0;whiteSpace=wrap;html=1;fillColor=#f8cecc;strokeColor=#b85450;" parent="Z1LP6Y0wAgCE39qLenY3-7" vertex="1">
          <mxGeometry x="160" y="50" width="140" height="30" as="geometry" />
        </mxCell>
        <mxCell id="Z1LP6Y0wAgCE39qLenY3-5" value="&lt;span style=&quot;color: rgb(26 , 26 , 26) ; font-family: &amp;#34;opensans&amp;#34; , &amp;#34;arial&amp;#34; , sans-serif , &amp;#34;noto sans hebrew&amp;#34; , &amp;#34;noto sans&amp;#34; , &amp;#34;noto sans jp&amp;#34; , &amp;#34;noto sans kr&amp;#34;&quot;&gt;&lt;font style=&quot;font-size: 10px&quot;&gt;OPS&lt;/font&gt;&lt;/span&gt;" style="rounded=0;whiteSpace=wrap;html=1;fillColor=#e1d5e7;strokeColor=#9673a6;" parent="Z1LP6Y0wAgCE39qLenY3-7" vertex="1">
          <mxGeometry x="10" y="50" width="140" height="30" as="geometry" />
        </mxCell>
        <mxCell id="Z1LP6Y0wAgCE39qLenY3-6" value="&lt;span style=&quot;color: rgb(26 , 26 , 26) ; font-family: &amp;#34;opensans&amp;#34; , &amp;#34;arial&amp;#34; , sans-serif , &amp;#34;noto sans hebrew&amp;#34; , &amp;#34;noto sans&amp;#34; , &amp;#34;noto sans jp&amp;#34; , &amp;#34;noto sans kr&amp;#34;&quot;&gt;&lt;font style=&quot;font-size: 10px&quot;&gt;OPS / SRE&lt;/font&gt;&lt;/span&gt;" style="rounded=0;whiteSpace=wrap;html=1;fillColor=#ffe6cc;strokeColor=#d79b00;" parent="Z1LP6Y0wAgCE39qLenY3-7" vertex="1">
          <mxGeometry x="310" y="50" width="140" height="30" as="geometry" />
        </mxCell>
        <mxCell id="B5dBP7y0pzLa89D12gk2-9" value="&lt;font style=&quot;font-size: 24px&quot;&gt;Roadmap&lt;/font&gt;" style="shape=table;childLayout=tableLayout;rowLines=0;columnLines=0;startSize=40;html=1;whiteSpace=wrap;collapsible=0;recursiveResize=0;expand=0;fontStyle=1" vertex="1" parent="1">
          <mxGeometry x="920" y="1440" width="3720" height="400" as="geometry" />
        </mxCell>
        <mxCell id="B5dBP7y0pzLa89D12gk2-10" value="Should do" style="swimlane;horizontal=0;points=[[0,0.5],[1,0.5]];portConstraint=eastwest;startSize=40;html=1;whiteSpace=wrap;collapsible=0;recursiveResize=0;expand=0;" vertex="1" parent="B5dBP7y0pzLa89D12gk2-9">
          <mxGeometry y="40" width="3720" height="360" as="geometry" />
        </mxCell>
        <mxCell id="B5dBP7y0pzLa89D12gk2-11" value="" style="swimlane;connectable=0;startSize=0;html=1;whiteSpace=wrap;collapsible=0;recursiveResize=0;expand=0;" vertex="1" parent="B5dBP7y0pzLa89D12gk2-10">
          <mxGeometry x="40" width="480" height="360" as="geometry" />
        </mxCell>
        <mxCell id="B5dBP7y0pzLa89D12gk2-12" value="&lt;span style=&quot;color: rgb(26 , 26 , 26) ; font-family: &amp;#34;opensans&amp;#34; , &amp;#34;arial&amp;#34; , sans-serif , &amp;#34;noto sans hebrew&amp;#34; , &amp;#34;noto sans&amp;#34; , &amp;#34;noto sans jp&amp;#34; , &amp;#34;noto sans kr&amp;#34; ; font-weight: 400 ; background-color: rgb(242 , 242 , 242)&quot;&gt;&lt;font style=&quot;font-size: 14px&quot;&gt;Garder la disponibilité de la PF au bon niveau&lt;/font&gt;&lt;/span&gt;" style="swimlane;connectable=0;startSize=40;html=1;whiteSpace=wrap;collapsible=0;recursiveResize=0;expand=0;" vertex="1" parent="B5dBP7y0pzLa89D12gk2-11">
          <mxGeometry width="480" height="360" as="geometry" />
        </mxCell>
        <mxCell id="B5dBP7y0pzLa89D12gk2-13" value="&lt;span style=&quot;color: rgb(26 , 26 , 26) ; font-family: &amp;#34;opensans&amp;#34; , &amp;#34;arial&amp;#34; , sans-serif , &amp;#34;noto sans hebrew&amp;#34; , &amp;#34;noto sans&amp;#34; , &amp;#34;noto sans jp&amp;#34; , &amp;#34;noto sans kr&amp;#34; ; font-weight: 400 ; background-color: rgb(242 , 242 , 242)&quot;&gt;&lt;font style=&quot;font-size: 10px&quot;&gt;Etablir des SLAs&lt;/font&gt;&lt;/span&gt;" style="swimlane;connectable=0;startSize=40;html=1;whiteSpace=wrap;collapsible=0;recursiveResize=0;expand=0;" vertex="1" parent="B5dBP7y0pzLa89D12gk2-12">
          <mxGeometry y="40" width="160" height="640" as="geometry" />
        </mxCell>
        <mxCell id="AWQUAnzGx-YJqW8tpvTz-3" value="&lt;span style=&quot;color: rgb(26 , 26 , 26) ; font-family: &amp;#34;opensans&amp;#34; , &amp;#34;arial&amp;#34; , sans-serif , &amp;#34;noto sans hebrew&amp;#34; , &amp;#34;noto sans&amp;#34; , &amp;#34;noto sans jp&amp;#34; , &amp;#34;noto sans kr&amp;#34;&quot;&gt;&lt;font style=&quot;font-size: 10px&quot;&gt;Définir est partager des SLA sur les produits transverses&lt;/font&gt;&lt;/span&gt;" style="rounded=0;whiteSpace=wrap;html=1;fillColor=#f5f5f5;strokeColor=#666666;fontColor=#333333;" parent="B5dBP7y0pzLa89D12gk2-13" vertex="1">
          <mxGeometry x="10" y="50" width="140" height="50" as="geometry" />
        </mxCell>
        <mxCell id="AWQUAnzGx-YJqW8tpvTz-4" value="&lt;span style=&quot;color: rgb(26 , 26 , 26) ; font-family: &amp;#34;opensans&amp;#34; , &amp;#34;arial&amp;#34; , sans-serif , &amp;#34;noto sans hebrew&amp;#34; , &amp;#34;noto sans&amp;#34; , &amp;#34;noto sans jp&amp;#34; , &amp;#34;noto sans kr&amp;#34;&quot;&gt;&lt;font style=&quot;font-size: 10px&quot;&gt;Définir est partager des SLA sur la plateforme d&#39;hébergement&lt;/font&gt;&lt;/span&gt;" style="rounded=0;whiteSpace=wrap;html=1;fillColor=#f5f5f5;strokeColor=#666666;fontColor=#333333;" parent="B5dBP7y0pzLa89D12gk2-13" vertex="1">
          <mxGeometry x="10" y="110" width="140" height="50" as="geometry" />
        </mxCell>
        <mxCell id="B5dBP7y0pzLa89D12gk2-14" value="&lt;span style=&quot;color: rgb(26 , 26 , 26) ; font-family: &amp;#34;opensans&amp;#34; , &amp;#34;arial&amp;#34; , sans-serif , &amp;#34;noto sans hebrew&amp;#34; , &amp;#34;noto sans&amp;#34; , &amp;#34;noto sans jp&amp;#34; , &amp;#34;noto sans kr&amp;#34; ; font-weight: 400 ; background-color: rgb(242 , 242 , 242)&quot;&gt;&lt;font style=&quot;font-size: 10px&quot;&gt;Proposer un plan de reprise/redondance&lt;/font&gt;&lt;/span&gt;" style="swimlane;connectable=0;startSize=40;html=1;whiteSpace=wrap;collapsible=0;recursiveResize=0;expand=0;" vertex="1" parent="B5dBP7y0pzLa89D12gk2-12">
          <mxGeometry x="160" y="40" width="160" height="640" as="geometry" />
        </mxCell>
        <mxCell id="AWQUAnzGx-YJqW8tpvTz-5" value="&lt;span style=&quot;color: rgb(26 , 26 , 26) ; font-family: &amp;#34;opensans&amp;#34; , &amp;#34;arial&amp;#34; , sans-serif , &amp;#34;noto sans hebrew&amp;#34; , &amp;#34;noto sans&amp;#34; , &amp;#34;noto sans jp&amp;#34; , &amp;#34;noto sans kr&amp;#34;&quot;&gt;&lt;font style=&quot;font-size: 10px&quot;&gt;Etablir les niveaux de criticités des produits et les besoins de PRA, PCA&lt;/font&gt;&lt;/span&gt;" style="rounded=0;whiteSpace=wrap;html=1;fillColor=#f5f5f5;strokeColor=#666666;fontColor=#333333;" parent="B5dBP7y0pzLa89D12gk2-14" vertex="1">
          <mxGeometry x="10" y="50" width="140" height="50" as="geometry" />
        </mxCell>
        <mxCell id="AWQUAnzGx-YJqW8tpvTz-7" value="&lt;span style=&quot;color: rgb(26 , 26 , 26) ; font-family: &amp;#34;opensans&amp;#34; , &amp;#34;arial&amp;#34; , sans-serif , &amp;#34;noto sans hebrew&amp;#34; , &amp;#34;noto sans&amp;#34; , &amp;#34;noto sans jp&amp;#34; , &amp;#34;noto sans kr&amp;#34;&quot;&gt;&lt;font style=&quot;font-size: 10px&quot;&gt;Définir un PRA ou PCA&lt;/font&gt;&lt;/span&gt;" style="rounded=0;whiteSpace=wrap;html=1;fillColor=#f5f5f5;strokeColor=#666666;fontColor=#333333;" parent="B5dBP7y0pzLa89D12gk2-14" vertex="1">
          <mxGeometry x="10" y="110" width="140" height="50" as="geometry" />
        </mxCell>
        <mxCell id="AWQUAnzGx-YJqW8tpvTz-6" value="&lt;span style=&quot;color: rgb(26 , 26 , 26) ; font-family: &amp;#34;opensans&amp;#34; , &amp;#34;arial&amp;#34; , sans-serif , &amp;#34;noto sans hebrew&amp;#34; , &amp;#34;noto sans&amp;#34; , &amp;#34;noto sans jp&amp;#34; , &amp;#34;noto sans kr&amp;#34;&quot;&gt;&lt;font style=&quot;font-size: 10px&quot;&gt;Tester le PRA PCA&lt;/font&gt;&lt;/span&gt;" style="rounded=0;whiteSpace=wrap;html=1;fillColor=#f5f5f5;strokeColor=#666666;fontColor=#333333;" parent="B5dBP7y0pzLa89D12gk2-14" vertex="1">
          <mxGeometry x="10" y="170" width="140" height="50" as="geometry" />
        </mxCell>
        <mxCell id="B5dBP7y0pzLa89D12gk2-15" value="&lt;span style=&quot;color: rgb(26 , 26 , 26) ; font-family: &amp;#34;opensans&amp;#34; , &amp;#34;arial&amp;#34; , sans-serif , &amp;#34;noto sans hebrew&amp;#34; , &amp;#34;noto sans&amp;#34; , &amp;#34;noto sans jp&amp;#34; , &amp;#34;noto sans kr&amp;#34; ; background-color: rgb(242 , 242 , 242)&quot;&gt;&lt;font style=&quot;font-size: 10px&quot;&gt;Perf des runners&lt;/font&gt;&lt;/span&gt;" style="swimlane;connectable=0;startSize=40;html=1;whiteSpace=wrap;collapsible=0;recursiveResize=0;expand=0;fontStyle=0" vertex="1" parent="B5dBP7y0pzLa89D12gk2-12">
          <mxGeometry x="320" y="40" width="160" height="640" as="geometry" />
        </mxCell>
        <mxCell id="B5dBP7y0pzLa89D12gk2-16" value="" style="swimlane;connectable=0;startSize=0;html=1;whiteSpace=wrap;collapsible=0;recursiveResize=0;expand=0;" vertex="1" parent="B5dBP7y0pzLa89D12gk2-10">
          <mxGeometry x="520" width="640" height="360" as="geometry" />
        </mxCell>
        <mxCell id="B5dBP7y0pzLa89D12gk2-17" value="&lt;span style=&quot;color: rgb(26 , 26 , 26) ; font-family: &amp;#34;opensans&amp;#34; , &amp;#34;arial&amp;#34; , sans-serif , &amp;#34;noto sans hebrew&amp;#34; , &amp;#34;noto sans&amp;#34; , &amp;#34;noto sans jp&amp;#34; , &amp;#34;noto sans kr&amp;#34; ; font-weight: 400 ; background-color: rgb(242 , 242 , 242)&quot;&gt;&lt;font style=&quot;font-size: 14px&quot;&gt;Communication / Marketing&lt;/font&gt;&lt;/span&gt;" style="swimlane;connectable=0;startSize=40;html=1;whiteSpace=wrap;collapsible=0;recursiveResize=0;expand=0;" vertex="1" parent="B5dBP7y0pzLa89D12gk2-16">
          <mxGeometry width="640" height="360" as="geometry" />
        </mxCell>
        <mxCell id="B5dBP7y0pzLa89D12gk2-18" value="&lt;span style=&quot;color: rgb(26 , 26 , 26) ; font-family: &amp;#34;opensans&amp;#34; , &amp;#34;arial&amp;#34; , sans-serif , &amp;#34;noto sans hebrew&amp;#34; , &amp;#34;noto sans&amp;#34; , &amp;#34;noto sans jp&amp;#34; , &amp;#34;noto sans kr&amp;#34; ; font-weight: 400 ; background-color: rgb(242 , 242 , 242)&quot;&gt;&lt;font style=&quot;font-size: 10px&quot;&gt;Formation&lt;/font&gt;&lt;/span&gt;" style="swimlane;connectable=0;startSize=40;html=1;whiteSpace=wrap;collapsible=0;recursiveResize=0;expand=0;" vertex="1" parent="B5dBP7y0pzLa89D12gk2-17">
          <mxGeometry y="40" width="160" height="640" as="geometry" />
        </mxCell>
        <mxCell id="AWQUAnzGx-YJqW8tpvTz-8" value="&lt;span style=&quot;color: rgb(26 , 26 , 26) ; font-family: &amp;#34;opensans&amp;#34; , &amp;#34;arial&amp;#34; , sans-serif , &amp;#34;noto sans hebrew&amp;#34; , &amp;#34;noto sans&amp;#34; , &amp;#34;noto sans jp&amp;#34; , &amp;#34;noto sans kr&amp;#34;&quot;&gt;&lt;font style=&quot;font-size: 10px&quot;&gt;Présentation macro de la plateforme composants et produits&lt;/font&gt;&lt;/span&gt;" style="rounded=0;whiteSpace=wrap;html=1;fillColor=#f5f5f5;strokeColor=#666666;fontColor=#333333;" parent="B5dBP7y0pzLa89D12gk2-18" vertex="1">
          <mxGeometry x="10" y="50" width="140" height="50" as="geometry" />
        </mxCell>
        <mxCell id="AWQUAnzGx-YJqW8tpvTz-9" value="&lt;span style=&quot;color: rgb(26 , 26 , 26) ; font-family: &amp;#34;opensans&amp;#34; , &amp;#34;arial&amp;#34; , sans-serif , &amp;#34;noto sans hebrew&amp;#34; , &amp;#34;noto sans&amp;#34; , &amp;#34;noto sans jp&amp;#34; , &amp;#34;noto sans kr&amp;#34;&quot;&gt;&lt;font style=&quot;font-size: 10px&quot;&gt;Présentation du déploiement d&#39;un produit sur la plateforme&lt;/font&gt;&lt;/span&gt;" style="rounded=0;whiteSpace=wrap;html=1;fillColor=#f5f5f5;strokeColor=#666666;fontColor=#333333;" parent="B5dBP7y0pzLa89D12gk2-18" vertex="1">
          <mxGeometry x="10" y="110" width="140" height="50" as="geometry" />
        </mxCell>
        <mxCell id="B5dBP7y0pzLa89D12gk2-19" value="&lt;span style=&quot;color: rgb(26 , 26 , 26) ; font-family: &amp;#34;opensans&amp;#34; , &amp;#34;arial&amp;#34; , sans-serif , &amp;#34;noto sans hebrew&amp;#34; , &amp;#34;noto sans&amp;#34; , &amp;#34;noto sans jp&amp;#34; , &amp;#34;noto sans kr&amp;#34; ; font-weight: 400 ; background-color: rgb(242 , 242 , 242)&quot;&gt;&lt;font style=&quot;font-size: 10px&quot;&gt;Documentation&lt;/font&gt;&lt;/span&gt;" style="swimlane;connectable=0;startSize=40;html=1;whiteSpace=wrap;collapsible=0;recursiveResize=0;expand=0;" vertex="1" parent="B5dBP7y0pzLa89D12gk2-17">
          <mxGeometry x="160" y="40" width="160" height="640" as="geometry" />
        </mxCell>
        <mxCell id="AWQUAnzGx-YJqW8tpvTz-10" value="&lt;span style=&quot;color: rgb(26 , 26 , 26) ; font-family: &amp;#34;opensans&amp;#34; , &amp;#34;arial&amp;#34; , sans-serif , &amp;#34;noto sans hebrew&amp;#34; , &amp;#34;noto sans&amp;#34; , &amp;#34;noto sans jp&amp;#34; , &amp;#34;noto sans kr&amp;#34;&quot;&gt;&lt;font style=&quot;font-size: 10px&quot;&gt;Documentation technique de la plateforme&lt;/font&gt;&lt;/span&gt;" style="rounded=0;whiteSpace=wrap;html=1;fillColor=#f5f5f5;strokeColor=#666666;fontColor=#333333;" parent="B5dBP7y0pzLa89D12gk2-19" vertex="1">
          <mxGeometry x="10" y="50" width="140" height="50" as="geometry" />
        </mxCell>
        <mxCell id="AWQUAnzGx-YJqW8tpvTz-11" value="&lt;span style=&quot;color: rgb(26 , 26 , 26) ; font-family: &amp;#34;opensans&amp;#34; , &amp;#34;arial&amp;#34; , sans-serif , &amp;#34;noto sans hebrew&amp;#34; , &amp;#34;noto sans&amp;#34; , &amp;#34;noto sans jp&amp;#34; , &amp;#34;noto sans kr&amp;#34;&quot;&gt;&lt;font style=&quot;font-size: 10px&quot;&gt;Documentation technique des produits transverses&lt;/font&gt;&lt;/span&gt;" style="rounded=0;whiteSpace=wrap;html=1;fillColor=#f5f5f5;strokeColor=#666666;fontColor=#333333;" parent="B5dBP7y0pzLa89D12gk2-19" vertex="1">
          <mxGeometry x="10" y="109" width="140" height="50" as="geometry" />
        </mxCell>
        <mxCell id="B5dBP7y0pzLa89D12gk2-20" value="&lt;span style=&quot;color: rgb(26 , 26 , 26) ; font-family: &amp;#34;opensans&amp;#34; , &amp;#34;arial&amp;#34; , sans-serif , &amp;#34;noto sans hebrew&amp;#34; , &amp;#34;noto sans&amp;#34; , &amp;#34;noto sans jp&amp;#34; , &amp;#34;noto sans kr&amp;#34; ; background-color: rgb(242 , 242 , 242)&quot;&gt;&lt;font style=&quot;font-size: 10px&quot;&gt;Workshops&lt;/font&gt;&lt;/span&gt;" style="swimlane;connectable=0;startSize=40;html=1;whiteSpace=wrap;collapsible=0;recursiveResize=0;expand=0;fontStyle=0" vertex="1" parent="B5dBP7y0pzLa89D12gk2-17">
          <mxGeometry x="320" y="40" width="160" height="640" as="geometry" />
        </mxCell>
        <mxCell id="B5dBP7y0pzLa89D12gk2-21" value="&lt;span style=&quot;color: rgb(26 , 26 , 26) ; font-family: &amp;#34;opensans&amp;#34; , &amp;#34;arial&amp;#34; , sans-serif , &amp;#34;noto sans hebrew&amp;#34; , &amp;#34;noto sans&amp;#34; , &amp;#34;noto sans jp&amp;#34; , &amp;#34;noto sans kr&amp;#34; ; background-color: rgb(242 , 242 , 242)&quot;&gt;&lt;font style=&quot;font-size: 10px&quot;&gt;Cursus d&#39;arrivée d&#39;une SE&lt;/font&gt;&lt;/span&gt;" style="swimlane;connectable=0;startSize=40;html=1;whiteSpace=wrap;collapsible=0;recursiveResize=0;expand=0;fontStyle=0" vertex="1" parent="B5dBP7y0pzLa89D12gk2-17">
          <mxGeometry x="480" y="40" width="160" height="640" as="geometry" />
        </mxCell>
        <mxCell id="Qkg7i3cpuD9OE8UDh-O3-6" value="&lt;span style=&quot;color: rgb(26 , 26 , 26) ; font-family: &amp;#34;opensans&amp;#34; , &amp;#34;arial&amp;#34; , sans-serif , &amp;#34;noto sans hebrew&amp;#34; , &amp;#34;noto sans&amp;#34; , &amp;#34;noto sans jp&amp;#34; , &amp;#34;noto sans kr&amp;#34;&quot;&gt;&lt;font style=&quot;font-size: 10px&quot;&gt;2 - Présentation Kosco - CI&lt;/font&gt;&lt;/span&gt;" style="rounded=0;whiteSpace=wrap;html=1;fillColor=#ffe6cc;strokeColor=#d79b00;" parent="B5dBP7y0pzLa89D12gk2-21" vertex="1">
          <mxGeometry x="10" y="50" width="140" height="50" as="geometry" />
        </mxCell>
        <mxCell id="B5dBP7y0pzLa89D12gk2-26" value="" style="swimlane;connectable=0;startSize=0;html=1;whiteSpace=wrap;collapsible=0;recursiveResize=0;expand=0;" vertex="1" parent="B5dBP7y0pzLa89D12gk2-10">
          <mxGeometry x="1160" width="2560" height="360" as="geometry" />
        </mxCell>
        <mxCell id="B5dBP7y0pzLa89D12gk2-27" value="" style="swimlane;connectable=0;startSize=0;html=1;whiteSpace=wrap;collapsible=0;recursiveResize=0;expand=0;" vertex="1" parent="B5dBP7y0pzLa89D12gk2-26">
          <mxGeometry width="640" height="360" as="geometry" />
        </mxCell>
        <mxCell id="B5dBP7y0pzLa89D12gk2-28" value="&lt;span style=&quot;color: rgb(26 , 26 , 26) ; font-family: &amp;#34;opensans&amp;#34; , &amp;#34;arial&amp;#34; , sans-serif , &amp;#34;noto sans hebrew&amp;#34; , &amp;#34;noto sans&amp;#34; , &amp;#34;noto sans jp&amp;#34; , &amp;#34;noto sans kr&amp;#34; ; font-weight: 400 ; background-color: rgb(242 , 242 , 242)&quot;&gt;&lt;font style=&quot;font-size: 14px&quot;&gt;Catalogue de service&lt;/font&gt;&lt;/span&gt;" style="swimlane;connectable=0;startSize=40;html=1;whiteSpace=wrap;collapsible=0;recursiveResize=0;expand=0;" vertex="1" parent="B5dBP7y0pzLa89D12gk2-27">
          <mxGeometry width="640" height="360" as="geometry" />
        </mxCell>
        <mxCell id="B5dBP7y0pzLa89D12gk2-29" value="&lt;span style=&quot;color: rgb(26 , 26 , 26) ; font-family: &amp;#34;opensans&amp;#34; , &amp;#34;arial&amp;#34; , sans-serif , &amp;#34;noto sans hebrew&amp;#34; , &amp;#34;noto sans&amp;#34; , &amp;#34;noto sans jp&amp;#34; , &amp;#34;noto sans kr&amp;#34; ; font-weight: 400 ; background-color: rgb(242 , 242 , 242)&quot;&gt;&lt;font style=&quot;font-size: 10px&quot;&gt;Gestion des secrets centralisée&lt;/font&gt;&lt;/span&gt;" style="swimlane;connectable=0;startSize=40;html=1;whiteSpace=wrap;collapsible=0;recursiveResize=0;expand=0;" vertex="1" parent="B5dBP7y0pzLa89D12gk2-28">
          <mxGeometry y="40" width="160" height="640" as="geometry" />
        </mxCell>
        <mxCell id="AWQUAnzGx-YJqW8tpvTz-12" value="&lt;span style=&quot;color: rgb(26 , 26 , 26) ; font-family: &amp;#34;opensans&amp;#34; , &amp;#34;arial&amp;#34; , sans-serif , &amp;#34;noto sans hebrew&amp;#34; , &amp;#34;noto sans&amp;#34; , &amp;#34;noto sans jp&amp;#34; , &amp;#34;noto sans kr&amp;#34;&quot;&gt;&lt;font style=&quot;font-size: 10px&quot;&gt;&lt;strike&gt;Audit + analyse&amp;nbsp; d&#39;accès aux secrets&lt;/strike&gt;&lt;/font&gt;&lt;/span&gt;" style="rounded=0;whiteSpace=wrap;html=1;fillColor=#f5f5f5;strokeColor=#666666;fontColor=#333333;" parent="B5dBP7y0pzLa89D12gk2-29" vertex="1">
          <mxGeometry x="10" y="50" width="140" height="50" as="geometry" />
        </mxCell>
        <mxCell id="B5dBP7y0pzLa89D12gk2-31" value="&lt;span style=&quot;color: rgb(26 , 26 , 26) ; font-family: &amp;#34;opensans&amp;#34; , &amp;#34;arial&amp;#34; , sans-serif , &amp;#34;noto sans hebrew&amp;#34; , &amp;#34;noto sans&amp;#34; , &amp;#34;noto sans jp&amp;#34; , &amp;#34;noto sans kr&amp;#34; ; font-weight: 400 ; background-color: rgb(242 , 242 , 242)&quot;&gt;&lt;font style=&quot;font-size: 10px&quot;&gt;Function As a Service&lt;/font&gt;&lt;/span&gt;" style="swimlane;connectable=0;startSize=40;html=1;whiteSpace=wrap;collapsible=0;recursiveResize=0;expand=0;" vertex="1" parent="B5dBP7y0pzLa89D12gk2-28">
          <mxGeometry x="160" y="40" width="160" height="640" as="geometry" />
        </mxCell>
        <mxCell id="B5dBP7y0pzLa89D12gk2-32" value="&lt;span style=&quot;color: rgb(26 , 26 , 26) ; font-family: &amp;#34;opensans&amp;#34; , &amp;#34;arial&amp;#34; , sans-serif , &amp;#34;noto sans hebrew&amp;#34; , &amp;#34;noto sans&amp;#34; , &amp;#34;noto sans jp&amp;#34; , &amp;#34;noto sans kr&amp;#34; ; background-color: rgb(242 , 242 , 242)&quot;&gt;&lt;font style=&quot;font-size: 10px&quot;&gt;Sécurité&lt;/font&gt;&lt;/span&gt;" style="swimlane;connectable=0;startSize=40;html=1;whiteSpace=wrap;collapsible=0;recursiveResize=0;expand=0;fontStyle=0" vertex="1" parent="B5dBP7y0pzLa89D12gk2-28">
          <mxGeometry x="320" y="40" width="160" height="640" as="geometry" />
        </mxCell>
        <mxCell id="B5dBP7y0pzLa89D12gk2-37" value="&lt;p style=&quot;margin: 0px ; padding: 0px ; color: rgb(26 , 26 , 26) ; font-family: &amp;#34;opensans&amp;#34; , &amp;#34;arial&amp;#34; , sans-serif , &amp;#34;noto sans hebrew&amp;#34; , &amp;#34;noto sans&amp;#34; , &amp;#34;noto sans jp&amp;#34; , &amp;#34;noto sans kr&amp;#34; ; background-color: rgb(242 , 242 , 242)&quot;&gt;&lt;font style=&quot;font-size: 10px&quot;&gt;Sécurité&amp;nbsp;&lt;/font&gt;&lt;span style=&quot;font-size: 10px&quot;&gt;des runners&amp;nbsp;&lt;/span&gt;&lt;/p&gt;&lt;p style=&quot;margin: 0px ; padding: 0px ; color: rgb(26 , 26 , 26) ; font-family: &amp;#34;opensans&amp;#34; , &amp;#34;arial&amp;#34; , sans-serif , &amp;#34;noto sans hebrew&amp;#34; , &amp;#34;noto sans&amp;#34; , &amp;#34;noto sans jp&amp;#34; , &amp;#34;noto sans kr&amp;#34; ; background-color: rgb(242 , 242 , 242)&quot;&gt;&lt;span style=&quot;font-size: 10px&quot;&gt;(privileged, droits, etc.)&lt;/span&gt;&lt;/p&gt;" style="swimlane;connectable=0;startSize=40;html=1;whiteSpace=wrap;collapsible=0;recursiveResize=0;expand=0;fontStyle=0" vertex="1" parent="B5dBP7y0pzLa89D12gk2-28">
          <mxGeometry x="480" y="40" width="160" height="640" as="geometry" />
        </mxCell>
        <mxCell id="B5dBP7y0pzLa89D12gk2-39" value="&lt;span style=&quot;color: rgb(26 , 26 , 26) ; font-family: &amp;#34;opensans&amp;#34; , &amp;#34;arial&amp;#34; , sans-serif , &amp;#34;noto sans hebrew&amp;#34; , &amp;#34;noto sans&amp;#34; , &amp;#34;noto sans jp&amp;#34; , &amp;#34;noto sans kr&amp;#34; ; font-weight: 400 ; background-color: rgb(242 , 242 , 242)&quot;&gt;&lt;font style=&quot;font-size: 14px&quot;&gt;Uniformisation&lt;/font&gt;&lt;/span&gt;" style="swimlane;connectable=0;startSize=40;html=1;whiteSpace=wrap;collapsible=0;recursiveResize=0;expand=0;" vertex="1" parent="B5dBP7y0pzLa89D12gk2-26">
          <mxGeometry x="640" width="800" height="360" as="geometry" />
        </mxCell>
        <mxCell id="B5dBP7y0pzLa89D12gk2-40" value="&lt;span style=&quot;color: rgb(26 , 26 , 26) ; font-family: &amp;#34;opensans&amp;#34; , &amp;#34;arial&amp;#34; , sans-serif , &amp;#34;noto sans hebrew&amp;#34; , &amp;#34;noto sans&amp;#34; , &amp;#34;noto sans jp&amp;#34; , &amp;#34;noto sans kr&amp;#34; ; font-weight: 400 ; background-color: rgb(242 , 242 , 242)&quot;&gt;&lt;font style=&quot;font-size: 10px&quot;&gt;SE agnostique au stockage&lt;/font&gt;&lt;/span&gt;" style="swimlane;connectable=0;startSize=40;html=1;whiteSpace=wrap;collapsible=0;recursiveResize=0;expand=0;" vertex="1" parent="B5dBP7y0pzLa89D12gk2-39">
          <mxGeometry y="40" width="160" height="640" as="geometry" />
        </mxCell>
        <mxCell id="AWQUAnzGx-YJqW8tpvTz-13" value="&lt;span style=&quot;color: rgb(26 , 26 , 26) ; font-family: &amp;#34;opensans&amp;#34; , &amp;#34;arial&amp;#34; , sans-serif , &amp;#34;noto sans hebrew&amp;#34; , &amp;#34;noto sans&amp;#34; , &amp;#34;noto sans jp&amp;#34; , &amp;#34;noto sans kr&amp;#34;&quot;&gt;&lt;font style=&quot;font-size: 10px&quot;&gt;Mettre en place une solution technique qui permettra de présenter une méthode universelle d&#39;accès au stockage quel que soit le CSP&lt;/font&gt;&lt;/span&gt;" style="rounded=0;whiteSpace=wrap;html=1;fillColor=#f5f5f5;strokeColor=#666666;fontColor=#333333;" parent="B5dBP7y0pzLa89D12gk2-40" vertex="1">
          <mxGeometry x="10" y="50" width="140" height="70" as="geometry" />
        </mxCell>
        <mxCell id="B5dBP7y0pzLa89D12gk2-41" value="&lt;font color=&quot;#1a1a1a&quot; face=&quot;opensans, arial, sans-serif, noto sans hebrew, noto sans, noto sans jp, noto sans kr&quot;&gt;&lt;span style=&quot;font-size: 10px ; font-weight: 400 ; background-color: rgb(242 , 242 , 242)&quot;&gt;Généralisation authentification github&lt;/span&gt;&lt;/font&gt;" style="swimlane;connectable=0;startSize=40;html=1;whiteSpace=wrap;collapsible=0;recursiveResize=0;expand=0;" vertex="1" parent="B5dBP7y0pzLa89D12gk2-39">
          <mxGeometry x="160" y="40" width="160" height="640" as="geometry" />
        </mxCell>
        <mxCell id="B5dBP7y0pzLa89D12gk2-42" value="&lt;span style=&quot;color: rgb(26 , 26 , 26) ; font-family: &amp;#34;opensans&amp;#34; , &amp;#34;arial&amp;#34; , sans-serif , &amp;#34;noto sans hebrew&amp;#34; , &amp;#34;noto sans&amp;#34; , &amp;#34;noto sans jp&amp;#34; , &amp;#34;noto sans kr&amp;#34; ; background-color: rgb(242 , 242 , 242)&quot;&gt;&lt;font style=&quot;font-size: 10px&quot;&gt;Network policies&lt;/font&gt;&lt;/span&gt;" style="swimlane;connectable=0;startSize=40;html=1;whiteSpace=wrap;collapsible=0;recursiveResize=0;expand=0;fontStyle=0" vertex="1" parent="B5dBP7y0pzLa89D12gk2-39">
          <mxGeometry x="320" y="40" width="160" height="640" as="geometry" />
        </mxCell>
        <mxCell id="B5dBP7y0pzLa89D12gk2-46" value="&lt;p style=&quot;margin: 0px ; padding: 0px ; color: rgb(26 , 26 , 26) ; font-family: &amp;#34;opensans&amp;#34; , &amp;#34;arial&amp;#34; , sans-serif , &amp;#34;noto sans hebrew&amp;#34; , &amp;#34;noto sans&amp;#34; , &amp;#34;noto sans jp&amp;#34; , &amp;#34;noto sans kr&amp;#34; ; background-color: rgb(242 , 242 , 242)&quot;&gt;&lt;span style=&quot;font-size: 10px&quot;&gt;requests, limits, hpa sur les produits&lt;/span&gt;&lt;/p&gt;" style="swimlane;connectable=0;startSize=40;html=1;whiteSpace=wrap;collapsible=0;recursiveResize=0;expand=0;fontStyle=0" vertex="1" parent="B5dBP7y0pzLa89D12gk2-39">
          <mxGeometry x="480" y="40" width="160" height="640" as="geometry" />
        </mxCell>
        <mxCell id="B5dBP7y0pzLa89D12gk2-47" value="&lt;p style=&quot;margin: 0px ; padding: 0px ; color: rgb(26 , 26 , 26) ; font-family: &amp;#34;opensans&amp;#34; , &amp;#34;arial&amp;#34; , sans-serif , &amp;#34;noto sans hebrew&amp;#34; , &amp;#34;noto sans&amp;#34; , &amp;#34;noto sans jp&amp;#34; , &amp;#34;noto sans kr&amp;#34; ; background-color: rgb(242 , 242 , 242)&quot;&gt;&lt;span style=&quot;font-size: 10px&quot;&gt;Build des images&lt;/span&gt;&lt;/p&gt;&lt;p style=&quot;margin: 0px ; padding: 0px ; color: rgb(26 , 26 , 26) ; font-family: &amp;#34;opensans&amp;#34; , &amp;#34;arial&amp;#34; , sans-serif , &amp;#34;noto sans hebrew&amp;#34; , &amp;#34;noto sans&amp;#34; , &amp;#34;noto sans jp&amp;#34; , &amp;#34;noto sans kr&amp;#34; ; background-color: rgb(242 , 242 , 242)&quot;&gt;&lt;span style=&quot;font-size: 10px&quot;&gt;(Kaniko, harbor, cache)&lt;/span&gt;&lt;/p&gt;" style="swimlane;connectable=0;startSize=40;html=1;whiteSpace=wrap;collapsible=0;recursiveResize=0;expand=0;fontStyle=0" vertex="1" parent="B5dBP7y0pzLa89D12gk2-46">
          <mxGeometry x="160" width="160" height="640" as="geometry" />
        </mxCell>
        <mxCell id="AWQUAnzGx-YJqW8tpvTz-17" value="&lt;span style=&quot;color: rgb(26 , 26 , 26) ; font-family: &amp;#34;opensans&amp;#34; , &amp;#34;arial&amp;#34; , sans-serif , &amp;#34;noto sans hebrew&amp;#34; , &amp;#34;noto sans&amp;#34; , &amp;#34;noto sans jp&amp;#34; , &amp;#34;noto sans kr&amp;#34;&quot;&gt;&lt;font style=&quot;font-size: 10px&quot;&gt;Interdire le déploiement d&#39;une image de container avec des vulnérabilités&lt;/font&gt;&lt;/span&gt;" style="rounded=0;whiteSpace=wrap;html=1;fillColor=#f5f5f5;strokeColor=#666666;fontColor=#333333;" parent="B5dBP7y0pzLa89D12gk2-47" vertex="1">
          <mxGeometry x="10" y="50" width="140" height="50" as="geometry" />
        </mxCell>
        <mxCell id="AWQUAnzGx-YJqW8tpvTz-18" value="&lt;span style=&quot;color: rgb(26 , 26 , 26) ; font-family: &amp;#34;opensans&amp;#34; , &amp;#34;arial&amp;#34; , sans-serif , &amp;#34;noto sans hebrew&amp;#34; , &amp;#34;noto sans&amp;#34; , &amp;#34;noto sans jp&amp;#34; , &amp;#34;noto sans kr&amp;#34;&quot;&gt;&lt;font style=&quot;font-size: 10px&quot;&gt;Prévenir l&#39;équipe produit que l&#39;image ne peut pas être déployée&lt;/font&gt;&lt;/span&gt;" style="rounded=0;whiteSpace=wrap;html=1;fillColor=#f5f5f5;strokeColor=#666666;fontColor=#333333;" parent="B5dBP7y0pzLa89D12gk2-47" vertex="1">
          <mxGeometry x="10" y="109" width="140" height="50" as="geometry" />
        </mxCell>
        <mxCell id="AWQUAnzGx-YJqW8tpvTz-25" value="&lt;span style=&quot;color: rgb(26 , 26 , 26) ; font-family: &amp;#34;opensans&amp;#34; , &amp;#34;arial&amp;#34; , sans-serif , &amp;#34;noto sans hebrew&amp;#34; , &amp;#34;noto sans&amp;#34; , &amp;#34;noto sans jp&amp;#34; , &amp;#34;noto sans kr&amp;#34;&quot;&gt;&lt;font style=&quot;font-size: 10px&quot;&gt;définir un process de rémédiation des vulnérabilités sur les images&lt;/font&gt;&lt;/span&gt;" style="rounded=0;whiteSpace=wrap;html=1;fillColor=#f5f5f5;strokeColor=#666666;fontColor=#333333;" parent="B5dBP7y0pzLa89D12gk2-47" vertex="1">
          <mxGeometry x="10" y="170" width="140" height="50" as="geometry" />
        </mxCell>
        <mxCell id="B5dBP7y0pzLa89D12gk2-52" value="&lt;span style=&quot;color: rgb(26 , 26 , 26) ; font-family: &amp;#34;opensans&amp;#34; , &amp;#34;arial&amp;#34; , sans-serif , &amp;#34;noto sans hebrew&amp;#34; , &amp;#34;noto sans&amp;#34; , &amp;#34;noto sans jp&amp;#34; , &amp;#34;noto sans kr&amp;#34; ; background-color: rgb(242 , 242 , 242)&quot;&gt;&lt;font style=&quot;font-size: 14px&quot;&gt;Gestion des coûts&lt;/font&gt;&lt;/span&gt;" style="swimlane;connectable=0;startSize=40;html=1;whiteSpace=wrap;collapsible=0;recursiveResize=0;expand=0;fontStyle=0" vertex="1" parent="B5dBP7y0pzLa89D12gk2-26">
          <mxGeometry x="1440" width="800" height="360" as="geometry" />
        </mxCell>
        <mxCell id="B5dBP7y0pzLa89D12gk2-53" value="&lt;font color=&quot;#1a1a1a&quot; face=&quot;opensans, arial, sans-serif, noto sans hebrew, noto sans, noto sans jp, noto sans kr&quot;&gt;&lt;span style=&quot;font-size: 10px ; font-weight: 400 ; background-color: rgb(242 , 242 , 242)&quot;&gt;Bascule souscription Azure&lt;/span&gt;&lt;/font&gt;" style="swimlane;connectable=0;startSize=40;html=1;whiteSpace=wrap;collapsible=0;recursiveResize=0;expand=0;" vertex="1" parent="B5dBP7y0pzLa89D12gk2-52">
          <mxGeometry y="40" width="160" height="640" as="geometry" />
        </mxCell>
        <mxCell id="AWQUAnzGx-YJqW8tpvTz-26" value="&lt;span style=&quot;color: rgb(26 , 26 , 26) ; font-family: &amp;#34;opensans&amp;#34; , &amp;#34;arial&amp;#34; , sans-serif , &amp;#34;noto sans hebrew&amp;#34; , &amp;#34;noto sans&amp;#34; , &amp;#34;noto sans jp&amp;#34; , &amp;#34;noto sans kr&amp;#34;&quot;&gt;&lt;font style=&quot;font-size: 10px&quot;&gt;Optimiser la taille des images (multi stages)&lt;/font&gt;&lt;/span&gt;" style="rounded=0;whiteSpace=wrap;html=1;fillColor=#f5f5f5;strokeColor=#666666;fontColor=#333333;" parent="B5dBP7y0pzLa89D12gk2-53" vertex="1">
          <mxGeometry x="10" y="50" width="140" height="50" as="geometry" />
        </mxCell>
        <mxCell id="B5dBP7y0pzLa89D12gk2-60" value="&lt;span style=&quot;color: rgb(26 , 26 , 26) ; font-family: &amp;#34;opensans&amp;#34; , &amp;#34;arial&amp;#34; , sans-serif , &amp;#34;noto sans hebrew&amp;#34; , &amp;#34;noto sans&amp;#34; , &amp;#34;noto sans jp&amp;#34; , &amp;#34;noto sans kr&amp;#34; ; font-weight: 400 ; background-color: rgb(242 , 242 , 242)&quot;&gt;&lt;font style=&quot;font-size: 10px&quot;&gt;Gestion multiclouds&lt;/font&gt;&lt;/span&gt;" style="swimlane;connectable=0;startSize=40;html=1;whiteSpace=wrap;collapsible=0;recursiveResize=0;expand=0;" vertex="1" parent="B5dBP7y0pzLa89D12gk2-52">
          <mxGeometry x="160" y="40" width="160" height="640" as="geometry" />
        </mxCell>
        <mxCell id="B5dBP7y0pzLa89D12gk2-1" value="&lt;span style=&quot;color: rgb(26 , 26 , 26) ; font-family: &amp;#34;opensans&amp;#34; , &amp;#34;arial&amp;#34; , sans-serif , &amp;#34;noto sans hebrew&amp;#34; , &amp;#34;noto sans&amp;#34; , &amp;#34;noto sans jp&amp;#34; , &amp;#34;noto sans kr&amp;#34;&quot;&gt;&lt;font style=&quot;font-size: 10px&quot;&gt;Déployer le produit d&#39;une SE chez n&#39;importe lequel de nos cloud provider (sur Kube)&lt;/font&gt;&lt;/span&gt;" style="rounded=0;whiteSpace=wrap;html=1;fillColor=#f5f5f5;strokeColor=#666666;fontColor=#333333;" vertex="1" parent="B5dBP7y0pzLa89D12gk2-60">
          <mxGeometry x="10" y="50" width="140" height="50" as="geometry" />
        </mxCell>
        <mxCell id="B5dBP7y0pzLa89D12gk2-2" value="&lt;span style=&quot;color: rgb(26 , 26 , 26) ; font-family: &amp;#34;opensans&amp;#34; , &amp;#34;arial&amp;#34; , sans-serif , &amp;#34;noto sans hebrew&amp;#34; , &amp;#34;noto sans&amp;#34; , &amp;#34;noto sans jp&amp;#34; , &amp;#34;noto sans kr&amp;#34;&quot;&gt;&lt;font style=&quot;font-size: 10px&quot;&gt;Déployer les services managés liés au SE (Postgres, Stockage)&lt;/font&gt;&lt;/span&gt;" style="rounded=0;whiteSpace=wrap;html=1;fillColor=#f5f5f5;strokeColor=#666666;fontColor=#333333;" vertex="1" parent="B5dBP7y0pzLa89D12gk2-60">
          <mxGeometry x="10" y="109" width="140" height="50" as="geometry" />
        </mxCell>
        <mxCell id="B5dBP7y0pzLa89D12gk2-3" value="&lt;span style=&quot;color: rgb(26 , 26 , 26) ; font-family: &amp;#34;opensans&amp;#34; , &amp;#34;arial&amp;#34; , sans-serif , &amp;#34;noto sans hebrew&amp;#34; , &amp;#34;noto sans&amp;#34; , &amp;#34;noto sans jp&amp;#34; , &amp;#34;noto sans kr&amp;#34;&quot;&gt;&lt;font style=&quot;font-size: 10px&quot;&gt;Gestion&amp;nbsp; du monitoring/logs entre les 2 cloud providers&lt;/font&gt;&lt;/span&gt;" style="rounded=0;whiteSpace=wrap;html=1;fillColor=#f5f5f5;strokeColor=#666666;fontColor=#333333;" vertex="1" parent="B5dBP7y0pzLa89D12gk2-60">
          <mxGeometry x="10" y="170" width="140" height="50" as="geometry" />
        </mxCell>
        <mxCell id="B5dBP7y0pzLa89D12gk2-62" value="&lt;span style=&quot;color: rgb(26 , 26 , 26) ; font-family: &amp;#34;opensans&amp;#34; , &amp;#34;arial&amp;#34; , sans-serif , &amp;#34;noto sans hebrew&amp;#34; , &amp;#34;noto sans&amp;#34; , &amp;#34;noto sans jp&amp;#34; , &amp;#34;noto sans kr&amp;#34; ; background-color: rgb(242 , 242 , 242)&quot;&gt;&lt;font style=&quot;font-size: 10px&quot;&gt;Nettoyage des environnements&lt;/font&gt;&lt;/span&gt;" style="swimlane;connectable=0;startSize=40;html=1;whiteSpace=wrap;collapsible=0;recursiveResize=0;expand=0;fontStyle=0" vertex="1" parent="B5dBP7y0pzLa89D12gk2-52">
          <mxGeometry x="320" y="40" width="160" height="640" as="geometry" />
        </mxCell>
        <mxCell id="B5dBP7y0pzLa89D12gk2-4" value="&lt;span style=&quot;color: rgb(26 , 26 , 26) ; font-family: &amp;#34;opensans&amp;#34; , &amp;#34;arial&amp;#34; , sans-serif , &amp;#34;noto sans hebrew&amp;#34; , &amp;#34;noto sans&amp;#34; , &amp;#34;noto sans jp&amp;#34; , &amp;#34;noto sans kr&amp;#34;&quot;&gt;&lt;font style=&quot;font-size: 10px&quot;&gt;Automatiser le nettoyage des environnements&lt;/font&gt;&lt;/span&gt;" style="rounded=0;whiteSpace=wrap;html=1;fillColor=#f5f5f5;strokeColor=#666666;fontColor=#333333;" vertex="1" parent="B5dBP7y0pzLa89D12gk2-62">
          <mxGeometry x="10" y="50" width="140" height="50" as="geometry" />
        </mxCell>
        <mxCell id="B5dBP7y0pzLa89D12gk2-63" value="&lt;p style=&quot;margin: 0px ; padding: 0px ; color: rgb(26 , 26 , 26) ; font-family: &amp;#34;opensans&amp;#34; , &amp;#34;arial&amp;#34; , sans-serif , &amp;#34;noto sans hebrew&amp;#34; , &amp;#34;noto sans&amp;#34; , &amp;#34;noto sans jp&amp;#34; , &amp;#34;noto sans kr&amp;#34; ; background-color: rgb(242 , 242 , 242)&quot;&gt;&lt;span style=&quot;font-size: 10px&quot;&gt;Analyse des coûts&lt;/span&gt;&lt;/p&gt;" style="swimlane;connectable=0;startSize=40;html=1;whiteSpace=wrap;collapsible=0;recursiveResize=0;expand=0;fontStyle=0" vertex="1" parent="B5dBP7y0pzLa89D12gk2-52">
          <mxGeometry x="480" y="40" width="160" height="640" as="geometry" />
        </mxCell>
        <mxCell id="B5dBP7y0pzLa89D12gk2-64" value="&lt;p style=&quot;margin: 0px ; padding: 0px ; color: rgb(26 , 26 , 26) ; font-family: &amp;#34;opensans&amp;#34; , &amp;#34;arial&amp;#34; , sans-serif , &amp;#34;noto sans hebrew&amp;#34; , &amp;#34;noto sans&amp;#34; , &amp;#34;noto sans jp&amp;#34; , &amp;#34;noto sans kr&amp;#34; ; background-color: rgb(242 , 242 , 242)&quot;&gt;&lt;span style=&quot;font-size: 10px&quot;&gt;sortir de gitlab ee&lt;/span&gt;&lt;/p&gt;" style="swimlane;connectable=0;startSize=40;html=1;whiteSpace=wrap;collapsible=0;recursiveResize=0;expand=0;fontStyle=0" vertex="1" parent="B5dBP7y0pzLa89D12gk2-52">
          <mxGeometry x="640" y="40" width="160" height="640" as="geometry" />
        </mxCell>
        <mxCell id="B5dBP7y0pzLa89D12gk2-68" value="&lt;span style=&quot;color: rgb(26 , 26 , 26) ; font-family: &amp;#34;opensans&amp;#34; , &amp;#34;arial&amp;#34; , sans-serif , &amp;#34;noto sans hebrew&amp;#34; , &amp;#34;noto sans&amp;#34; , &amp;#34;noto sans jp&amp;#34; , &amp;#34;noto sans kr&amp;#34; ; background-color: rgb(242 , 242 , 242)&quot;&gt;&lt;font style=&quot;font-size: 14px&quot;&gt;Gestion de la qualité&lt;/font&gt;&lt;/span&gt;" style="swimlane;connectable=0;startSize=40;html=1;whiteSpace=wrap;collapsible=0;recursiveResize=0;expand=0;fontStyle=0" vertex="1" parent="B5dBP7y0pzLa89D12gk2-26">
          <mxGeometry x="2240" width="320" height="360" as="geometry" />
        </mxCell>
        <mxCell id="B5dBP7y0pzLa89D12gk2-69" value="&lt;span style=&quot;color: rgb(26 , 26 , 26) ; font-family: &amp;#34;opensans&amp;#34; , &amp;#34;arial&amp;#34; , sans-serif , &amp;#34;noto sans hebrew&amp;#34; , &amp;#34;noto sans&amp;#34; , &amp;#34;noto sans jp&amp;#34; , &amp;#34;noto sans kr&amp;#34; ; font-weight: 400 ; background-color: rgb(242 , 242 , 242)&quot;&gt;&lt;font style=&quot;font-size: 10px&quot;&gt;Accessibilité&lt;/font&gt;&lt;/span&gt;" style="swimlane;connectable=0;startSize=40;html=1;whiteSpace=wrap;collapsible=0;recursiveResize=0;expand=0;" vertex="1" parent="B5dBP7y0pzLa89D12gk2-68">
          <mxGeometry y="40" width="160" height="640" as="geometry" />
        </mxCell>
        <mxCell id="B5dBP7y0pzLa89D12gk2-70" value="&lt;p style=&quot;margin: 0px ; padding: 0px ; color: rgb(26 , 26 , 26) ; font-weight: 400 ; background-color: rgb(242 , 242 , 242)&quot;&gt;&lt;font face=&quot;opensans&quot;&gt;&lt;span style=&quot;font-size: 10px&quot;&gt;Code quality&lt;/span&gt;&lt;/font&gt;&lt;/p&gt;&lt;p style=&quot;margin: 0px ; padding: 0px ; color: rgb(26 , 26 , 26) ; font-weight: 400 ; background-color: rgb(242 , 242 , 242)&quot;&gt;&lt;font face=&quot;opensans&quot;&gt;&lt;span style=&quot;font-size: 10px&quot;&gt;(sonarqube, lint, code coverage)&lt;/span&gt;&lt;/font&gt;&lt;/p&gt;" style="swimlane;connectable=0;startSize=40;html=1;whiteSpace=wrap;collapsible=0;recursiveResize=0;expand=0;" vertex="1" parent="B5dBP7y0pzLa89D12gk2-68">
          <mxGeometry x="160" y="40" width="160" height="640" as="geometry" />
        </mxCell>
      </root>
    </mxGraphModel>
  </diagram>
</mxfile>
